<mxfile host="app.diagrams.net" agent="Mozilla/5.0 (Windows NT 10.0; Win64; x64; rv:139.0) Gecko/20100101 Firefox/139.0" version="27.1.4">
  <diagram name="Page-1" id="KsB0coz9u_D4WFN7o_ku">
    <mxGraphModel dx="4591" dy="2544" grid="1" gridSize="10" guides="1" tooltips="1" connect="1" arrows="1" fold="1" page="1" pageScale="1" pageWidth="3300" pageHeight="4681" math="0" shadow="0">
      <root>
        <mxCell id="0" />
        <mxCell id="1" parent="0" />
        <mxCell id="AtMaZ5p30dFXvsd24rU8-1" value="&lt;div&gt;check for&lt;/div&gt;&lt;div&gt;input&lt;/div&gt;" style="edgeStyle=orthogonalEdgeStyle;rounded=0;orthogonalLoop=1;jettySize=auto;html=1;entryX=0.5;entryY=0;entryDx=0;entryDy=0;" edge="1" parent="1">
          <mxGeometry relative="1" as="geometry">
            <mxPoint x="1695" y="2760" as="sourcePoint" />
            <mxPoint x="1695" y="2880" as="targetPoint" />
          </mxGeometry>
        </mxCell>
        <mxCell id="AtMaZ5p30dFXvsd24rU8-3" value="System Control" style="shape=module;align=left;spacingLeft=20;align=center;verticalAlign=top;whiteSpace=wrap;html=1;" vertex="1" parent="1">
          <mxGeometry x="1655" y="2610" width="340" height="150" as="geometry" />
        </mxCell>
        <mxCell id="AtMaZ5p30dFXvsd24rU8-4" value="Light Control" style="shape=module;align=left;spacingLeft=20;align=center;verticalAlign=top;whiteSpace=wrap;html=1;" vertex="1" parent="1">
          <mxGeometry x="1400" y="1760" width="560" height="120" as="geometry" />
        </mxCell>
        <mxCell id="AtMaZ5p30dFXvsd24rU8-7" value="Program Control" style="shape=module;align=left;spacingLeft=20;align=center;verticalAlign=top;whiteSpace=wrap;html=1;" vertex="1" parent="1">
          <mxGeometry x="1400" y="1920" width="820" height="270" as="geometry" />
        </mxCell>
        <mxCell id="AtMaZ5p30dFXvsd24rU8-10" value="Door Control" style="shape=module;align=left;spacingLeft=20;align=center;verticalAlign=top;whiteSpace=wrap;html=1;" vertex="1" parent="1">
          <mxGeometry x="1400" y="1280" width="560" height="200" as="geometry" />
        </mxCell>
        <mxCell id="AtMaZ5p30dFXvsd24rU8-13" value="Sensor Control" style="shape=module;align=left;spacingLeft=20;align=center;verticalAlign=top;whiteSpace=wrap;html=1;" vertex="1" parent="1">
          <mxGeometry x="3280" y="1680" width="1100" height="800" as="geometry" />
        </mxCell>
        <mxCell id="AtMaZ5p30dFXvsd24rU8-14" value="Turntable Control" style="shape=module;align=left;spacingLeft=20;align=center;verticalAlign=top;whiteSpace=wrap;html=1;" vertex="1" parent="1">
          <mxGeometry x="1400" y="1520" width="560" height="200" as="geometry" />
        </mxCell>
        <mxCell id="AtMaZ5p30dFXvsd24rU8-15" value="&lt;div&gt;Reflector Control&lt;/div&gt;" style="shape=module;align=left;spacingLeft=20;align=center;verticalAlign=top;whiteSpace=wrap;html=1;" vertex="1" parent="1">
          <mxGeometry x="2320" y="1280" width="560" height="200" as="geometry" />
        </mxCell>
        <mxCell id="AtMaZ5p30dFXvsd24rU8-16" value="Magnetron Control" style="shape=module;align=left;spacingLeft=20;align=center;verticalAlign=top;whiteSpace=wrap;html=1;" vertex="1" parent="1">
          <mxGeometry x="2320" y="1760" width="560" height="460" as="geometry" />
        </mxCell>
        <mxCell id="AtMaZ5p30dFXvsd24rU8-17" value="Cooling Fan Control" style="shape=module;align=left;spacingLeft=20;align=center;verticalAlign=top;whiteSpace=wrap;html=1;" vertex="1" parent="1">
          <mxGeometry x="2320" y="1520" width="560" height="210" as="geometry" />
        </mxCell>
        <mxCell id="AtMaZ5p30dFXvsd24rU8-23" value="Emergency Control" style="shape=module;align=left;spacingLeft=20;align=center;verticalAlign=top;whiteSpace=wrap;html=1;" vertex="1" parent="1">
          <mxGeometry x="2400" y="2600" width="810" height="230" as="geometry" />
        </mxCell>
        <mxCell id="AtMaZ5p30dFXvsd24rU8-25" value="User Interaction Control" style="shape=module;align=left;spacingLeft=20;align=center;verticalAlign=top;whiteSpace=wrap;html=1;" vertex="1" parent="1">
          <mxGeometry x="1655" y="2880" width="340" height="150" as="geometry" />
        </mxCell>
        <mxCell id="AtMaZ5p30dFXvsd24rU8-26" value="Display Handler" style="shape=module;align=left;spacingLeft=20;align=center;verticalAlign=top;whiteSpace=wrap;html=1;" vertex="1" parent="1">
          <mxGeometry x="2155" y="2890" width="140" height="40" as="geometry" />
        </mxCell>
        <mxCell id="AtMaZ5p30dFXvsd24rU8-27" value="delegate inputs" style="edgeStyle=orthogonalEdgeStyle;rounded=0;orthogonalLoop=1;jettySize=auto;html=1;entryX=1;entryY=0.75;entryDx=0;entryDy=0;" edge="1" parent="1" source="AtMaZ5p30dFXvsd24rU8-28" target="AtMaZ5p30dFXvsd24rU8-25">
          <mxGeometry x="-0.0156" relative="1" as="geometry">
            <mxPoint as="offset" />
          </mxGeometry>
        </mxCell>
        <mxCell id="AtMaZ5p30dFXvsd24rU8-28" value="Input Detector" style="shape=module;align=left;spacingLeft=20;align=center;verticalAlign=top;whiteSpace=wrap;html=1;" vertex="1" parent="1">
          <mxGeometry x="2155" y="2970" width="140" height="40" as="geometry" />
        </mxCell>
        <mxCell id="AtMaZ5p30dFXvsd24rU8-29" value="Logging Handler" style="shape=module;align=left;spacingLeft=20;align=center;verticalAlign=top;whiteSpace=wrap;html=1;" vertex="1" parent="1">
          <mxGeometry x="280" y="1920" width="1010" height="320" as="geometry" />
        </mxCell>
        <mxCell id="AtMaZ5p30dFXvsd24rU8-32" value="Alarm Control" style="shape=module;align=left;spacingLeft=20;align=center;verticalAlign=top;whiteSpace=wrap;html=1;" vertex="1" parent="1">
          <mxGeometry x="2400" y="2320" width="620" height="190" as="geometry" />
        </mxCell>
        <mxCell id="AtMaZ5p30dFXvsd24rU8-34" value="&lt;div&gt;Idle Watchdog&lt;/div&gt;" style="shape=module;align=left;spacingLeft=20;align=center;verticalAlign=top;whiteSpace=wrap;html=1;" vertex="1" parent="1">
          <mxGeometry x="1415" y="2840" width="140" height="40" as="geometry" />
        </mxCell>
        <mxCell id="AtMaZ5p30dFXvsd24rU8-35" value="activate" style="edgeStyle=orthogonalEdgeStyle;rounded=0;orthogonalLoop=1;jettySize=auto;html=1;entryX=0.55;entryY=0.075;entryDx=0;entryDy=0;entryPerimeter=0;" edge="1" parent="1" source="AtMaZ5p30dFXvsd24rU8-3" target="AtMaZ5p30dFXvsd24rU8-34">
          <mxGeometry x="0.6024" relative="1" as="geometry">
            <mxPoint as="offset" />
          </mxGeometry>
        </mxCell>
        <mxCell id="AtMaZ5p30dFXvsd24rU8-36" value="wake up" style="edgeStyle=orthogonalEdgeStyle;rounded=0;orthogonalLoop=1;jettySize=auto;html=1;exitX=0.75;exitY=0;exitDx=0;exitDy=0;entryX=0;entryY=0;entryDx=0;entryDy=35;entryPerimeter=0;" edge="1" parent="1" source="AtMaZ5p30dFXvsd24rU8-34" target="AtMaZ5p30dFXvsd24rU8-3">
          <mxGeometry relative="1" as="geometry" />
        </mxCell>
        <mxCell id="AtMaZ5p30dFXvsd24rU8-37" value="check for input" style="edgeStyle=orthogonalEdgeStyle;rounded=0;orthogonalLoop=1;jettySize=auto;html=1;exitX=0.5;exitY=1;exitDx=0;exitDy=0;entryX=0.007;entryY=0.7;entryDx=0;entryDy=0;entryPerimeter=0;" edge="1" parent="1" source="AtMaZ5p30dFXvsd24rU8-34" target="AtMaZ5p30dFXvsd24rU8-25">
          <mxGeometry relative="1" as="geometry" />
        </mxCell>
        <mxCell id="AtMaZ5p30dFXvsd24rU8-38" style="edgeStyle=orthogonalEdgeStyle;rounded=0;orthogonalLoop=1;jettySize=auto;html=1;entryX=-0.001;entryY=0.505;entryDx=0;entryDy=0;entryPerimeter=0;exitX=1.004;exitY=0.195;exitDx=0;exitDy=0;exitPerimeter=0;" edge="1" parent="1" source="AtMaZ5p30dFXvsd24rU8-25" target="AtMaZ5p30dFXvsd24rU8-26">
          <mxGeometry relative="1" as="geometry" />
        </mxCell>
        <mxCell id="AtMaZ5p30dFXvsd24rU8-40" value="&lt;div&gt;update&lt;/div&gt;&lt;div&gt;display&lt;/div&gt;" style="edgeStyle=orthogonalEdgeStyle;rounded=0;orthogonalLoop=1;jettySize=auto;html=1;entryX=0.75;entryY=0;entryDx=0;entryDy=0;exitX=0.75;exitY=1;exitDx=0;exitDy=0;" edge="1" parent="1" source="AtMaZ5p30dFXvsd24rU8-3" target="AtMaZ5p30dFXvsd24rU8-25">
          <mxGeometry relative="1" as="geometry">
            <mxPoint x="1745" y="2780" as="sourcePoint" />
            <mxPoint x="1745" y="2900" as="targetPoint" />
          </mxGeometry>
        </mxCell>
        <mxCell id="AtMaZ5p30dFXvsd24rU8-42" value="LogLevel" style="swimlane;fontStyle=1;align=center;verticalAlign=top;childLayout=stackLayout;horizontal=1;startSize=26;horizontalStack=0;resizeParent=1;resizeParentMax=0;resizeLast=0;collapsible=1;marginBottom=0;whiteSpace=wrap;html=1;" vertex="1" parent="1">
          <mxGeometry x="1110" y="2080" width="160" height="60" as="geometry" />
        </mxCell>
        <mxCell id="AtMaZ5p30dFXvsd24rU8-43" value="+ name: string" style="text;strokeColor=none;fillColor=none;align=left;verticalAlign=top;spacingLeft=4;spacingRight=4;overflow=hidden;rotatable=0;points=[[0,0.5],[1,0.5]];portConstraint=eastwest;whiteSpace=wrap;html=1;" vertex="1" parent="AtMaZ5p30dFXvsd24rU8-42">
          <mxGeometry y="26" width="160" height="26" as="geometry" />
        </mxCell>
        <mxCell id="AtMaZ5p30dFXvsd24rU8-44" value="" style="line;strokeWidth=1;fillColor=none;align=left;verticalAlign=middle;spacingTop=-1;spacingLeft=3;spacingRight=3;rotatable=0;labelPosition=right;points=[];portConstraint=eastwest;strokeColor=inherit;" vertex="1" parent="AtMaZ5p30dFXvsd24rU8-42">
          <mxGeometry y="52" width="160" height="8" as="geometry" />
        </mxCell>
        <mxCell id="AtMaZ5p30dFXvsd24rU8-45" value="logging" style="swimlane;fontStyle=1;align=center;verticalAlign=top;childLayout=stackLayout;horizontal=1;startSize=26;horizontalStack=0;resizeParent=1;resizeParentMax=0;resizeLast=0;collapsible=1;marginBottom=0;whiteSpace=wrap;html=1;" vertex="1" parent="1">
          <mxGeometry x="830" y="1960" width="200" height="90" as="geometry" />
        </mxCell>
        <mxCell id="AtMaZ5p30dFXvsd24rU8-46" value="" style="line;strokeWidth=1;fillColor=none;align=left;verticalAlign=middle;spacingTop=-1;spacingLeft=3;spacingRight=3;rotatable=0;labelPosition=right;points=[];portConstraint=eastwest;strokeColor=inherit;" vertex="1" parent="AtMaZ5p30dFXvsd24rU8-45">
          <mxGeometry y="26" width="200" height="8" as="geometry" />
        </mxCell>
        <mxCell id="AtMaZ5p30dFXvsd24rU8-47" value="&lt;div&gt;+ getLogger()&lt;/div&gt;&lt;div&gt;+ addHandler()&lt;/div&gt;&lt;div&gt;+ setLevel()&lt;/div&gt;" style="text;strokeColor=none;fillColor=none;align=left;verticalAlign=top;spacingLeft=4;spacingRight=4;overflow=hidden;rotatable=0;points=[[0,0.5],[1,0.5]];portConstraint=eastwest;whiteSpace=wrap;html=1;" vertex="1" parent="AtMaZ5p30dFXvsd24rU8-45">
          <mxGeometry y="34" width="200" height="56" as="geometry" />
        </mxCell>
        <mxCell id="AtMaZ5p30dFXvsd24rU8-48" value="LoggerFacade" style="swimlane;fontStyle=1;align=center;verticalAlign=top;childLayout=stackLayout;horizontal=1;startSize=26;horizontalStack=0;resizeParent=1;resizeParentMax=0;resizeLast=0;collapsible=1;marginBottom=0;whiteSpace=wrap;html=1;" vertex="1" parent="1">
          <mxGeometry x="590" y="2000" width="160" height="110" as="geometry" />
        </mxCell>
        <mxCell id="AtMaZ5p30dFXvsd24rU8-49" value="&lt;div&gt;- logger: logging&lt;/div&gt;&lt;div&gt;- service: string&lt;/div&gt;" style="text;strokeColor=none;fillColor=none;align=left;verticalAlign=top;spacingLeft=4;spacingRight=4;overflow=hidden;rotatable=0;points=[[0,0.5],[1,0.5]];portConstraint=eastwest;whiteSpace=wrap;html=1;" vertex="1" parent="AtMaZ5p30dFXvsd24rU8-48">
          <mxGeometry y="26" width="160" height="34" as="geometry" />
        </mxCell>
        <mxCell id="AtMaZ5p30dFXvsd24rU8-50" value="" style="line;strokeWidth=1;fillColor=none;align=left;verticalAlign=middle;spacingTop=-1;spacingLeft=3;spacingRight=3;rotatable=0;labelPosition=right;points=[];portConstraint=eastwest;strokeColor=inherit;" vertex="1" parent="AtMaZ5p30dFXvsd24rU8-48">
          <mxGeometry y="60" width="160" height="8" as="geometry" />
        </mxCell>
        <mxCell id="AtMaZ5p30dFXvsd24rU8-51" value="+ log(string, LogLevel)&lt;br&gt;+ set_level(LogLevel)" style="text;strokeColor=none;fillColor=none;align=left;verticalAlign=top;spacingLeft=4;spacingRight=4;overflow=hidden;rotatable=0;points=[[0,0.5],[1,0.5]];portConstraint=eastwest;whiteSpace=wrap;html=1;" vertex="1" parent="AtMaZ5p30dFXvsd24rU8-48">
          <mxGeometry y="68" width="160" height="42" as="geometry" />
        </mxCell>
        <mxCell id="AtMaZ5p30dFXvsd24rU8-52" value="LoggerInterface" style="swimlane;fontStyle=1;align=center;verticalAlign=top;childLayout=stackLayout;horizontal=1;startSize=26;horizontalStack=0;resizeParent=1;resizeParentMax=0;resizeLast=0;collapsible=1;marginBottom=0;whiteSpace=wrap;html=1;" vertex="1" parent="1">
          <mxGeometry x="830" y="2080" width="160" height="76" as="geometry" />
        </mxCell>
        <mxCell id="AtMaZ5p30dFXvsd24rU8-53" value="" style="line;strokeWidth=1;fillColor=none;align=left;verticalAlign=middle;spacingTop=-1;spacingLeft=3;spacingRight=3;rotatable=0;labelPosition=right;points=[];portConstraint=eastwest;strokeColor=inherit;" vertex="1" parent="AtMaZ5p30dFXvsd24rU8-52">
          <mxGeometry y="26" width="160" height="8" as="geometry" />
        </mxCell>
        <mxCell id="AtMaZ5p30dFXvsd24rU8-54" value="+ log(string, LogLevel)&lt;br&gt;+ set_level(LogLevel)" style="text;strokeColor=none;fillColor=none;align=left;verticalAlign=top;spacingLeft=4;spacingRight=4;overflow=hidden;rotatable=0;points=[[0,0.5],[1,0.5]];portConstraint=eastwest;whiteSpace=wrap;html=1;" vertex="1" parent="AtMaZ5p30dFXvsd24rU8-52">
          <mxGeometry y="34" width="160" height="42" as="geometry" />
        </mxCell>
        <mxCell id="AtMaZ5p30dFXvsd24rU8-55" value="Logger" style="swimlane;fontStyle=1;align=center;verticalAlign=top;childLayout=stackLayout;horizontal=1;startSize=26;horizontalStack=0;resizeParent=1;resizeParentMax=0;resizeLast=0;collapsible=1;marginBottom=0;whiteSpace=wrap;html=1;" vertex="1" parent="1">
          <mxGeometry x="310" y="2080" width="220" height="110" as="geometry" />
        </mxCell>
        <mxCell id="AtMaZ5p30dFXvsd24rU8-56" value="&lt;div&gt;- instance: Map&amp;lt;string, LoggerFacade&lt;/div&gt;" style="text;strokeColor=none;fillColor=none;align=left;verticalAlign=top;spacingLeft=4;spacingRight=4;overflow=hidden;rotatable=0;points=[[0,0.5],[1,0.5]];portConstraint=eastwest;whiteSpace=wrap;html=1;" vertex="1" parent="AtMaZ5p30dFXvsd24rU8-55">
          <mxGeometry y="26" width="220" height="34" as="geometry" />
        </mxCell>
        <mxCell id="AtMaZ5p30dFXvsd24rU8-57" value="" style="line;strokeWidth=1;fillColor=none;align=left;verticalAlign=middle;spacingTop=-1;spacingLeft=3;spacingRight=3;rotatable=0;labelPosition=right;points=[];portConstraint=eastwest;strokeColor=inherit;" vertex="1" parent="AtMaZ5p30dFXvsd24rU8-55">
          <mxGeometry y="60" width="220" height="8" as="geometry" />
        </mxCell>
        <mxCell id="AtMaZ5p30dFXvsd24rU8-58" value="+ log(string, LogLevel)&lt;br&gt;+ set_level(LogLevel)" style="text;strokeColor=none;fillColor=none;align=left;verticalAlign=top;spacingLeft=4;spacingRight=4;overflow=hidden;rotatable=0;points=[[0,0.5],[1,0.5]];portConstraint=eastwest;whiteSpace=wrap;html=1;" vertex="1" parent="AtMaZ5p30dFXvsd24rU8-55">
          <mxGeometry y="68" width="220" height="42" as="geometry" />
        </mxCell>
        <mxCell id="AtMaZ5p30dFXvsd24rU8-59" value="" style="endArrow=block;endSize=16;endFill=0;html=1;rounded=0;exitX=1;exitY=0.5;exitDx=0;exitDy=0;entryX=-0.003;entryY=0.148;entryDx=0;entryDy=0;entryPerimeter=0;" edge="1" parent="1" source="AtMaZ5p30dFXvsd24rU8-51" target="AtMaZ5p30dFXvsd24rU8-52">
          <mxGeometry width="160" relative="1" as="geometry">
            <mxPoint x="800.1599999999999" y="2180.8559999999998" as="sourcePoint" />
            <mxPoint x="720" y="2179.997142857143" as="targetPoint" />
          </mxGeometry>
        </mxCell>
        <mxCell id="AtMaZ5p30dFXvsd24rU8-60" value="" style="endArrow=block;endSize=16;endFill=0;html=1;rounded=0;entryX=0;entryY=0.75;entryDx=0;entryDy=0;exitX=1.008;exitY=0.912;exitDx=0;exitDy=0;exitPerimeter=0;" edge="1" parent="1" source="AtMaZ5p30dFXvsd24rU8-56" target="AtMaZ5p30dFXvsd24rU8-52">
          <mxGeometry width="160" relative="1" as="geometry">
            <mxPoint x="680" y="2240" as="sourcePoint" />
            <mxPoint x="790" y="2090" as="targetPoint" />
          </mxGeometry>
        </mxCell>
        <mxCell id="AtMaZ5p30dFXvsd24rU8-61" value="" style="endArrow=open;endSize=12;dashed=1;html=1;rounded=0;exitX=1.004;exitY=0.097;exitDx=0;exitDy=0;exitPerimeter=0;entryX=0.009;entryY=0.319;entryDx=0;entryDy=0;entryPerimeter=0;" edge="1" parent="1" source="AtMaZ5p30dFXvsd24rU8-48" target="AtMaZ5p30dFXvsd24rU8-47">
          <mxGeometry width="160" relative="1" as="geometry">
            <mxPoint x="770" y="2240" as="sourcePoint" />
            <mxPoint x="930" y="2240" as="targetPoint" />
          </mxGeometry>
        </mxCell>
        <mxCell id="AtMaZ5p30dFXvsd24rU8-62" value="" style="endArrow=open;endSize=12;dashed=1;html=1;rounded=0;entryX=0;entryY=0.25;entryDx=0;entryDy=0;exitX=1;exitY=0.25;exitDx=0;exitDy=0;" edge="1" parent="1" source="AtMaZ5p30dFXvsd24rU8-52" target="AtMaZ5p30dFXvsd24rU8-42">
          <mxGeometry width="160" relative="1" as="geometry">
            <mxPoint x="990" y="2110" as="sourcePoint" />
            <mxPoint x="1094" y="2118.5" as="targetPoint" />
          </mxGeometry>
        </mxCell>
        <mxCell id="AtMaZ5p30dFXvsd24rU8-63" value="Magnetron" style="swimlane;fontStyle=1;align=center;verticalAlign=top;childLayout=stackLayout;horizontal=1;startSize=26;horizontalStack=0;resizeParent=1;resizeParentMax=0;resizeLast=0;collapsible=1;marginBottom=0;whiteSpace=wrap;html=1;" vertex="1" parent="1">
          <mxGeometry x="2660" y="2110" width="160" height="100" as="geometry" />
        </mxCell>
        <mxCell id="AtMaZ5p30dFXvsd24rU8-64" value="- active: bool" style="text;strokeColor=none;fillColor=none;align=left;verticalAlign=top;spacingLeft=4;spacingRight=4;overflow=hidden;rotatable=0;points=[[0,0.5],[1,0.5]];portConstraint=eastwest;whiteSpace=wrap;html=1;" vertex="1" parent="AtMaZ5p30dFXvsd24rU8-63">
          <mxGeometry y="26" width="160" height="26" as="geometry" />
        </mxCell>
        <mxCell id="AtMaZ5p30dFXvsd24rU8-65" value="" style="line;strokeWidth=1;fillColor=none;align=left;verticalAlign=middle;spacingTop=-1;spacingLeft=3;spacingRight=3;rotatable=0;labelPosition=right;points=[];portConstraint=eastwest;strokeColor=inherit;" vertex="1" parent="AtMaZ5p30dFXvsd24rU8-63">
          <mxGeometry y="52" width="160" height="8" as="geometry" />
        </mxCell>
        <mxCell id="AtMaZ5p30dFXvsd24rU8-66" value="&lt;div&gt;+ turn_on()&lt;/div&gt;&lt;div&gt;+ turn_off()&lt;/div&gt;" style="text;strokeColor=none;fillColor=none;align=left;verticalAlign=top;spacingLeft=4;spacingRight=4;overflow=hidden;rotatable=0;points=[[0,0.5],[1,0.5]];portConstraint=eastwest;whiteSpace=wrap;html=1;" vertex="1" parent="AtMaZ5p30dFXvsd24rU8-63">
          <mxGeometry y="60" width="160" height="40" as="geometry" />
        </mxCell>
        <mxCell id="AtMaZ5p30dFXvsd24rU8-67" value="MagnetronModulator" style="swimlane;fontStyle=1;align=center;verticalAlign=top;childLayout=stackLayout;horizontal=1;startSize=26;horizontalStack=0;resizeParent=1;resizeParentMax=0;resizeLast=0;collapsible=1;marginBottom=0;whiteSpace=wrap;html=1;" vertex="1" parent="1">
          <mxGeometry x="2380" y="1990" width="160" height="160" as="geometry" />
        </mxCell>
        <mxCell id="AtMaZ5p30dFXvsd24rU8-68" value="&lt;div&gt;+ target_power_share: float&lt;/div&gt;&lt;div&gt;+ running: bool&lt;/div&gt;" style="text;strokeColor=none;fillColor=none;align=left;verticalAlign=top;spacingLeft=4;spacingRight=4;overflow=hidden;rotatable=0;points=[[0,0.5],[1,0.5]];portConstraint=eastwest;whiteSpace=wrap;html=1;" vertex="1" parent="AtMaZ5p30dFXvsd24rU8-67">
          <mxGeometry y="26" width="160" height="34" as="geometry" />
        </mxCell>
        <mxCell id="AtMaZ5p30dFXvsd24rU8-69" value="" style="line;strokeWidth=1;fillColor=none;align=left;verticalAlign=middle;spacingTop=-1;spacingLeft=3;spacingRight=3;rotatable=0;labelPosition=right;points=[];portConstraint=eastwest;strokeColor=inherit;" vertex="1" parent="AtMaZ5p30dFXvsd24rU8-67">
          <mxGeometry y="60" width="160" height="8" as="geometry" />
        </mxCell>
        <mxCell id="AtMaZ5p30dFXvsd24rU8-70" value="&lt;div&gt;+ start()&lt;/div&gt;&lt;div&gt;+ stop()&lt;/div&gt;&lt;div&gt;+ set_target_power()&lt;/div&gt;&lt;div&gt;+ safety_hazard(): bool&lt;/div&gt;&lt;div&gt;+ magnetron_cycle()&lt;/div&gt;&lt;div&gt;+ magnetron_loop()&lt;/div&gt;" style="text;strokeColor=none;fillColor=none;align=left;verticalAlign=top;spacingLeft=4;spacingRight=4;overflow=hidden;rotatable=0;points=[[0,0.5],[1,0.5]];portConstraint=eastwest;whiteSpace=wrap;html=1;" vertex="1" parent="AtMaZ5p30dFXvsd24rU8-67">
          <mxGeometry y="68" width="160" height="92" as="geometry" />
        </mxCell>
        <mxCell id="AtMaZ5p30dFXvsd24rU8-71" value="" style="endArrow=open;endSize=12;dashed=1;html=1;rounded=0;exitX=0.999;exitY=0.11;exitDx=0;exitDy=0;entryX=0.007;entryY=0.176;entryDx=0;entryDy=0;exitPerimeter=0;entryPerimeter=0;" edge="1" parent="1" source="AtMaZ5p30dFXvsd24rU8-67" target="AtMaZ5p30dFXvsd24rU8-63">
          <mxGeometry width="160" relative="1" as="geometry">
            <mxPoint x="2510" y="2020" as="sourcePoint" />
            <mxPoint x="2670" y="2020" as="targetPoint" />
          </mxGeometry>
        </mxCell>
        <mxCell id="AtMaZ5p30dFXvsd24rU8-72" value="" style="endArrow=open;endSize=12;dashed=1;html=1;rounded=0;exitX=1.004;exitY=0.107;exitDx=0;exitDy=0;exitPerimeter=0;entryX=-0.007;entryY=0.162;entryDx=0;entryDy=0;entryPerimeter=0;" edge="1" parent="1" source="AtMaZ5p30dFXvsd24rU8-67" target="AtMaZ5p30dFXvsd24rU8-73">
          <mxGeometry width="160" relative="1" as="geometry">
            <mxPoint x="2620" y="1800" as="sourcePoint" />
            <mxPoint x="2650" y="1940" as="targetPoint" />
          </mxGeometry>
        </mxCell>
        <mxCell id="AtMaZ5p30dFXvsd24rU8-73" value="MagnetronRingbuffer" style="swimlane;fontStyle=1;align=center;verticalAlign=top;childLayout=stackLayout;horizontal=1;startSize=26;horizontalStack=0;resizeParent=1;resizeParentMax=0;resizeLast=0;collapsible=1;marginBottom=0;whiteSpace=wrap;html=1;" vertex="1" parent="1">
          <mxGeometry x="2660" y="1950" width="160" height="110" as="geometry" />
        </mxCell>
        <mxCell id="AtMaZ5p30dFXvsd24rU8-74" value="&lt;div&gt;+ filled: int&lt;/div&gt;" style="text;strokeColor=none;fillColor=none;align=left;verticalAlign=top;spacingLeft=4;spacingRight=4;overflow=hidden;rotatable=0;points=[[0,0.5],[1,0.5]];portConstraint=eastwest;whiteSpace=wrap;html=1;" vertex="1" parent="AtMaZ5p30dFXvsd24rU8-73">
          <mxGeometry y="26" width="160" height="24" as="geometry" />
        </mxCell>
        <mxCell id="AtMaZ5p30dFXvsd24rU8-75" value="" style="line;strokeWidth=1;fillColor=none;align=left;verticalAlign=middle;spacingTop=-1;spacingLeft=3;spacingRight=3;rotatable=0;labelPosition=right;points=[];portConstraint=eastwest;strokeColor=inherit;" vertex="1" parent="AtMaZ5p30dFXvsd24rU8-73">
          <mxGeometry y="50" width="160" height="8" as="geometry" />
        </mxCell>
        <mxCell id="AtMaZ5p30dFXvsd24rU8-76" value="&lt;div&gt;+ add(bool)&lt;/div&gt;&lt;div&gt;+ get(): List[bool]&lt;/div&gt;&lt;div&gt;+ power_share(): int&lt;/div&gt;" style="text;strokeColor=none;fillColor=none;align=left;verticalAlign=top;spacingLeft=4;spacingRight=4;overflow=hidden;rotatable=0;points=[[0,0.5],[1,0.5]];portConstraint=eastwest;whiteSpace=wrap;html=1;" vertex="1" parent="AtMaZ5p30dFXvsd24rU8-73">
          <mxGeometry y="58" width="160" height="52" as="geometry" />
        </mxCell>
        <mxCell id="AtMaZ5p30dFXvsd24rU8-77" value="Ringbuffer" style="swimlane;fontStyle=1;align=center;verticalAlign=top;childLayout=stackLayout;horizontal=1;startSize=26;horizontalStack=0;resizeParent=1;resizeParentMax=0;resizeLast=0;collapsible=1;marginBottom=0;whiteSpace=wrap;html=1;" vertex="1" parent="1">
          <mxGeometry x="2660" y="1790" width="160" height="100" as="geometry" />
        </mxCell>
        <mxCell id="AtMaZ5p30dFXvsd24rU8-78" value="&lt;div&gt;+ size: int&lt;/div&gt;" style="text;strokeColor=none;fillColor=none;align=left;verticalAlign=top;spacingLeft=4;spacingRight=4;overflow=hidden;rotatable=0;points=[[0,0.5],[1,0.5]];portConstraint=eastwest;whiteSpace=wrap;html=1;" vertex="1" parent="AtMaZ5p30dFXvsd24rU8-77">
          <mxGeometry y="26" width="160" height="24" as="geometry" />
        </mxCell>
        <mxCell id="AtMaZ5p30dFXvsd24rU8-79" value="" style="line;strokeWidth=1;fillColor=none;align=left;verticalAlign=middle;spacingTop=-1;spacingLeft=3;spacingRight=3;rotatable=0;labelPosition=right;points=[];portConstraint=eastwest;strokeColor=inherit;" vertex="1" parent="AtMaZ5p30dFXvsd24rU8-77">
          <mxGeometry y="50" width="160" height="8" as="geometry" />
        </mxCell>
        <mxCell id="AtMaZ5p30dFXvsd24rU8-80" value="&lt;div&gt;+ add(any)&lt;/div&gt;&lt;div&gt;+ get(): list()&lt;/div&gt;" style="text;strokeColor=none;fillColor=none;align=left;verticalAlign=top;spacingLeft=4;spacingRight=4;overflow=hidden;rotatable=0;points=[[0,0.5],[1,0.5]];portConstraint=eastwest;whiteSpace=wrap;html=1;" vertex="1" parent="AtMaZ5p30dFXvsd24rU8-77">
          <mxGeometry y="58" width="160" height="42" as="geometry" />
        </mxCell>
        <mxCell id="AtMaZ5p30dFXvsd24rU8-81" value="" style="endArrow=block;endSize=16;endFill=0;html=1;rounded=0;entryX=0.5;entryY=1;entryDx=0;entryDy=0;exitX=0.5;exitY=0;exitDx=0;exitDy=0;" edge="1" parent="1" source="AtMaZ5p30dFXvsd24rU8-73" target="AtMaZ5p30dFXvsd24rU8-77">
          <mxGeometry width="160" relative="1" as="geometry">
            <mxPoint x="2740" y="2028" as="sourcePoint" />
            <mxPoint x="2940" y="1940" as="targetPoint" />
          </mxGeometry>
        </mxCell>
        <mxCell id="AtMaZ5p30dFXvsd24rU8-82" value="SensorManager" style="swimlane;fontStyle=1;align=center;verticalAlign=top;childLayout=stackLayout;horizontal=1;startSize=26;horizontalStack=0;resizeParent=1;resizeParentMax=0;resizeLast=0;collapsible=1;marginBottom=0;whiteSpace=wrap;html=1;" vertex="1" parent="1">
          <mxGeometry x="3320" y="1970" width="240" height="190" as="geometry" />
        </mxCell>
        <mxCell id="AtMaZ5p30dFXvsd24rU8-83" value="" style="line;strokeWidth=1;fillColor=none;align=left;verticalAlign=middle;spacingTop=-1;spacingLeft=3;spacingRight=3;rotatable=0;labelPosition=right;points=[];portConstraint=eastwest;strokeColor=inherit;" vertex="1" parent="AtMaZ5p30dFXvsd24rU8-82">
          <mxGeometry y="26" width="240" height="8" as="geometry" />
        </mxCell>
        <mxCell id="AtMaZ5p30dFXvsd24rU8-84" value="&lt;div&gt;+ update_sensors()&lt;/div&gt;&lt;div&gt;+ reset()&lt;/div&gt;&lt;div&gt;&lt;br&gt;&lt;/div&gt;&lt;div&gt;+ inner_temp1(): float&lt;/div&gt;&lt;div&gt;&lt;div&gt;+ inner_temp2(): float&lt;/div&gt;&lt;div&gt;&lt;div&gt;+ inner_humidity(): float&lt;/div&gt;&lt;div&gt;+ inner_weight(): float&lt;/div&gt;&lt;div&gt;&lt;br&gt;&lt;div&gt;&lt;div&gt;+ magnetron_temp1(): float&lt;div&gt;+ magnetron_temp2(): float&lt;/div&gt;&lt;/div&gt;&lt;/div&gt;&lt;/div&gt;&lt;/div&gt;&lt;/div&gt;" style="text;strokeColor=none;fillColor=none;align=left;verticalAlign=top;spacingLeft=4;spacingRight=4;overflow=hidden;rotatable=0;points=[[0,0.5],[1,0.5]];portConstraint=eastwest;whiteSpace=wrap;html=1;" vertex="1" parent="AtMaZ5p30dFXvsd24rU8-82">
          <mxGeometry y="34" width="240" height="156" as="geometry" />
        </mxCell>
        <mxCell id="AtMaZ5p30dFXvsd24rU8-85" value="SimulationSensorTemp1" style="swimlane;fontStyle=1;align=center;verticalAlign=top;childLayout=stackLayout;horizontal=1;startSize=26;horizontalStack=0;resizeParent=1;resizeParentMax=0;resizeLast=0;collapsible=1;marginBottom=0;whiteSpace=wrap;html=1;" vertex="1" parent="1">
          <mxGeometry x="3720" y="1730" width="240" height="90" as="geometry" />
        </mxCell>
        <mxCell id="AtMaZ5p30dFXvsd24rU8-86" value="" style="line;strokeWidth=1;fillColor=none;align=left;verticalAlign=middle;spacingTop=-1;spacingLeft=3;spacingRight=3;rotatable=0;labelPosition=right;points=[];portConstraint=eastwest;strokeColor=inherit;" vertex="1" parent="AtMaZ5p30dFXvsd24rU8-85">
          <mxGeometry y="26" width="240" height="8" as="geometry" />
        </mxCell>
        <mxCell id="AtMaZ5p30dFXvsd24rU8-87" value="&lt;div&gt;+ get()&lt;/div&gt;&lt;div&gt;+ update()&lt;/div&gt;&lt;div&gt;+ reset()&lt;/div&gt;" style="text;strokeColor=none;fillColor=none;align=left;verticalAlign=top;spacingLeft=4;spacingRight=4;overflow=hidden;rotatable=0;points=[[0,0.5],[1,0.5]];portConstraint=eastwest;whiteSpace=wrap;html=1;" vertex="1" parent="AtMaZ5p30dFXvsd24rU8-85">
          <mxGeometry y="34" width="240" height="56" as="geometry" />
        </mxCell>
        <mxCell id="AtMaZ5p30dFXvsd24rU8-88" value="SimulationSensorTemp2" style="swimlane;fontStyle=1;align=center;verticalAlign=top;childLayout=stackLayout;horizontal=1;startSize=26;horizontalStack=0;resizeParent=1;resizeParentMax=0;resizeLast=0;collapsible=1;marginBottom=0;whiteSpace=wrap;html=1;" vertex="1" parent="1">
          <mxGeometry x="3720" y="1850" width="240" height="100" as="geometry" />
        </mxCell>
        <mxCell id="AtMaZ5p30dFXvsd24rU8-89" value="" style="line;strokeWidth=1;fillColor=none;align=left;verticalAlign=middle;spacingTop=-1;spacingLeft=3;spacingRight=3;rotatable=0;labelPosition=right;points=[];portConstraint=eastwest;strokeColor=inherit;" vertex="1" parent="AtMaZ5p30dFXvsd24rU8-88">
          <mxGeometry y="26" width="240" height="8" as="geometry" />
        </mxCell>
        <mxCell id="AtMaZ5p30dFXvsd24rU8-90" value="&lt;div&gt;+ get()&lt;/div&gt;&lt;div&gt;+ update()&lt;/div&gt;&lt;div&gt;+ reset()&lt;/div&gt;" style="text;strokeColor=none;fillColor=none;align=left;verticalAlign=top;spacingLeft=4;spacingRight=4;overflow=hidden;rotatable=0;points=[[0,0.5],[1,0.5]];portConstraint=eastwest;whiteSpace=wrap;html=1;" vertex="1" parent="AtMaZ5p30dFXvsd24rU8-88">
          <mxGeometry y="34" width="240" height="66" as="geometry" />
        </mxCell>
        <mxCell id="AtMaZ5p30dFXvsd24rU8-91" value="SimulationSensorHumidity" style="swimlane;fontStyle=1;align=center;verticalAlign=top;childLayout=stackLayout;horizontal=1;startSize=26;horizontalStack=0;resizeParent=1;resizeParentMax=0;resizeLast=0;collapsible=1;marginBottom=0;whiteSpace=wrap;html=1;" vertex="1" parent="1">
          <mxGeometry x="3720" y="1970" width="240" height="90" as="geometry" />
        </mxCell>
        <mxCell id="AtMaZ5p30dFXvsd24rU8-92" value="" style="line;strokeWidth=1;fillColor=none;align=left;verticalAlign=middle;spacingTop=-1;spacingLeft=3;spacingRight=3;rotatable=0;labelPosition=right;points=[];portConstraint=eastwest;strokeColor=inherit;" vertex="1" parent="AtMaZ5p30dFXvsd24rU8-91">
          <mxGeometry y="26" width="240" height="8" as="geometry" />
        </mxCell>
        <mxCell id="AtMaZ5p30dFXvsd24rU8-93" value="&lt;div&gt;+ get()&lt;/div&gt;&lt;div&gt;+ update()&lt;/div&gt;&lt;div&gt;+ reset()&lt;/div&gt;" style="text;strokeColor=none;fillColor=none;align=left;verticalAlign=top;spacingLeft=4;spacingRight=4;overflow=hidden;rotatable=0;points=[[0,0.5],[1,0.5]];portConstraint=eastwest;whiteSpace=wrap;html=1;" vertex="1" parent="AtMaZ5p30dFXvsd24rU8-91">
          <mxGeometry y="34" width="240" height="56" as="geometry" />
        </mxCell>
        <mxCell id="AtMaZ5p30dFXvsd24rU8-94" value="SimulationSensorWeight" style="swimlane;fontStyle=1;align=center;verticalAlign=top;childLayout=stackLayout;horizontal=1;startSize=26;horizontalStack=0;resizeParent=1;resizeParentMax=0;resizeLast=0;collapsible=1;marginBottom=0;whiteSpace=wrap;html=1;" vertex="1" parent="1">
          <mxGeometry x="3720" y="2090" width="240" height="90" as="geometry" />
        </mxCell>
        <mxCell id="AtMaZ5p30dFXvsd24rU8-95" value="" style="line;strokeWidth=1;fillColor=none;align=left;verticalAlign=middle;spacingTop=-1;spacingLeft=3;spacingRight=3;rotatable=0;labelPosition=right;points=[];portConstraint=eastwest;strokeColor=inherit;" vertex="1" parent="AtMaZ5p30dFXvsd24rU8-94">
          <mxGeometry y="26" width="240" height="8" as="geometry" />
        </mxCell>
        <mxCell id="AtMaZ5p30dFXvsd24rU8-96" value="&lt;div&gt;+ get()&lt;/div&gt;&lt;div&gt;+ update()&lt;/div&gt;&lt;div&gt;+ reset()&lt;/div&gt;" style="text;strokeColor=none;fillColor=none;align=left;verticalAlign=top;spacingLeft=4;spacingRight=4;overflow=hidden;rotatable=0;points=[[0,0.5],[1,0.5]];portConstraint=eastwest;whiteSpace=wrap;html=1;" vertex="1" parent="AtMaZ5p30dFXvsd24rU8-94">
          <mxGeometry y="34" width="240" height="56" as="geometry" />
        </mxCell>
        <mxCell id="AtMaZ5p30dFXvsd24rU8-97" value="SimulationSensorMagnetronTemp1" style="swimlane;fontStyle=1;align=center;verticalAlign=top;childLayout=stackLayout;horizontal=1;startSize=26;horizontalStack=0;resizeParent=1;resizeParentMax=0;resizeLast=0;collapsible=1;marginBottom=0;whiteSpace=wrap;html=1;" vertex="1" parent="1">
          <mxGeometry x="3720" y="2250" width="240" height="90" as="geometry" />
        </mxCell>
        <mxCell id="AtMaZ5p30dFXvsd24rU8-98" value="" style="line;strokeWidth=1;fillColor=none;align=left;verticalAlign=middle;spacingTop=-1;spacingLeft=3;spacingRight=3;rotatable=0;labelPosition=right;points=[];portConstraint=eastwest;strokeColor=inherit;" vertex="1" parent="AtMaZ5p30dFXvsd24rU8-97">
          <mxGeometry y="26" width="240" height="8" as="geometry" />
        </mxCell>
        <mxCell id="AtMaZ5p30dFXvsd24rU8-99" value="&lt;div&gt;+ get()&lt;/div&gt;&lt;div&gt;+ update()&lt;/div&gt;&lt;div&gt;+ reset()&lt;/div&gt;" style="text;strokeColor=none;fillColor=none;align=left;verticalAlign=top;spacingLeft=4;spacingRight=4;overflow=hidden;rotatable=0;points=[[0,0.5],[1,0.5]];portConstraint=eastwest;whiteSpace=wrap;html=1;" vertex="1" parent="AtMaZ5p30dFXvsd24rU8-97">
          <mxGeometry y="34" width="240" height="56" as="geometry" />
        </mxCell>
        <mxCell id="AtMaZ5p30dFXvsd24rU8-100" value="&lt;div&gt;SimulationSensorMagnetronTemp2&lt;/div&gt;" style="swimlane;fontStyle=1;align=center;verticalAlign=top;childLayout=stackLayout;horizontal=1;startSize=26;horizontalStack=0;resizeParent=1;resizeParentMax=0;resizeLast=0;collapsible=1;marginBottom=0;whiteSpace=wrap;html=1;" vertex="1" parent="1">
          <mxGeometry x="3720" y="2370" width="240" height="90" as="geometry" />
        </mxCell>
        <mxCell id="AtMaZ5p30dFXvsd24rU8-101" value="" style="line;strokeWidth=1;fillColor=none;align=left;verticalAlign=middle;spacingTop=-1;spacingLeft=3;spacingRight=3;rotatable=0;labelPosition=right;points=[];portConstraint=eastwest;strokeColor=inherit;" vertex="1" parent="AtMaZ5p30dFXvsd24rU8-100">
          <mxGeometry y="26" width="240" height="8" as="geometry" />
        </mxCell>
        <mxCell id="AtMaZ5p30dFXvsd24rU8-102" value="&lt;div&gt;+ get()&lt;/div&gt;&lt;div&gt;+ update()&lt;/div&gt;&lt;div&gt;+ reset()&lt;/div&gt;" style="text;strokeColor=none;fillColor=none;align=left;verticalAlign=top;spacingLeft=4;spacingRight=4;overflow=hidden;rotatable=0;points=[[0,0.5],[1,0.5]];portConstraint=eastwest;whiteSpace=wrap;html=1;" vertex="1" parent="AtMaZ5p30dFXvsd24rU8-100">
          <mxGeometry y="34" width="240" height="56" as="geometry" />
        </mxCell>
        <mxCell id="AtMaZ5p30dFXvsd24rU8-103" value="SimulationSensor" style="swimlane;fontStyle=1;align=center;verticalAlign=top;childLayout=stackLayout;horizontal=1;startSize=26;horizontalStack=0;resizeParent=1;resizeParentMax=0;resizeLast=0;collapsible=1;marginBottom=0;whiteSpace=wrap;html=1;" vertex="1" parent="1">
          <mxGeometry x="4120" y="1970" width="240" height="90" as="geometry" />
        </mxCell>
        <mxCell id="AtMaZ5p30dFXvsd24rU8-104" value="" style="line;strokeWidth=1;fillColor=none;align=left;verticalAlign=middle;spacingTop=-1;spacingLeft=3;spacingRight=3;rotatable=0;labelPosition=right;points=[];portConstraint=eastwest;strokeColor=inherit;" vertex="1" parent="AtMaZ5p30dFXvsd24rU8-103">
          <mxGeometry y="26" width="240" height="8" as="geometry" />
        </mxCell>
        <mxCell id="AtMaZ5p30dFXvsd24rU8-105" value="&lt;div&gt;+ get()&lt;/div&gt;&lt;div&gt;+ update()&lt;/div&gt;&lt;div&gt;+ reset()&lt;/div&gt;" style="text;strokeColor=none;fillColor=none;align=left;verticalAlign=top;spacingLeft=4;spacingRight=4;overflow=hidden;rotatable=0;points=[[0,0.5],[1,0.5]];portConstraint=eastwest;whiteSpace=wrap;html=1;" vertex="1" parent="AtMaZ5p30dFXvsd24rU8-103">
          <mxGeometry y="34" width="240" height="56" as="geometry" />
        </mxCell>
        <mxCell id="AtMaZ5p30dFXvsd24rU8-106" value="" style="endArrow=open;endSize=12;dashed=1;html=1;rounded=0;exitX=1;exitY=0.5;exitDx=0;exitDy=0;entryX=0;entryY=0.5;entryDx=0;entryDy=0;" edge="1" parent="1" source="AtMaZ5p30dFXvsd24rU8-84" target="AtMaZ5p30dFXvsd24rU8-87">
          <mxGeometry width="160" relative="1" as="geometry">
            <mxPoint x="3600" y="1990" as="sourcePoint" />
            <mxPoint x="3860" y="2020" as="targetPoint" />
          </mxGeometry>
        </mxCell>
        <mxCell id="AtMaZ5p30dFXvsd24rU8-107" value="" style="endArrow=open;endSize=12;dashed=1;html=1;rounded=0;exitX=1;exitY=0.5;exitDx=0;exitDy=0;entryX=0;entryY=0.5;entryDx=0;entryDy=0;" edge="1" parent="1" source="AtMaZ5p30dFXvsd24rU8-84" target="AtMaZ5p30dFXvsd24rU8-90">
          <mxGeometry width="160" relative="1" as="geometry">
            <mxPoint x="3590" y="2062" as="sourcePoint" />
            <mxPoint x="3828" y="1870" as="targetPoint" />
          </mxGeometry>
        </mxCell>
        <mxCell id="AtMaZ5p30dFXvsd24rU8-108" value="" style="endArrow=open;endSize=12;dashed=1;html=1;rounded=0;exitX=1;exitY=0.5;exitDx=0;exitDy=0;entryX=0;entryY=0.75;entryDx=0;entryDy=0;" edge="1" parent="1" source="AtMaZ5p30dFXvsd24rU8-84" target="AtMaZ5p30dFXvsd24rU8-91">
          <mxGeometry width="160" relative="1" as="geometry">
            <mxPoint x="3760" y="2092" as="sourcePoint" />
            <mxPoint x="3998" y="1900" as="targetPoint" />
          </mxGeometry>
        </mxCell>
        <mxCell id="AtMaZ5p30dFXvsd24rU8-109" value="" style="endArrow=open;endSize=12;dashed=1;html=1;rounded=0;entryX=0;entryY=0.5;entryDx=0;entryDy=0;exitX=1;exitY=0.5;exitDx=0;exitDy=0;" edge="1" parent="1" source="AtMaZ5p30dFXvsd24rU8-84" target="AtMaZ5p30dFXvsd24rU8-96">
          <mxGeometry width="160" relative="1" as="geometry">
            <mxPoint x="3490" y="1980" as="sourcePoint" />
            <mxPoint x="3898" y="1990" as="targetPoint" />
          </mxGeometry>
        </mxCell>
        <mxCell id="AtMaZ5p30dFXvsd24rU8-110" value="" style="endArrow=open;endSize=12;dashed=1;html=1;rounded=0;exitX=1;exitY=0.5;exitDx=0;exitDy=0;entryX=0;entryY=0.5;entryDx=0;entryDy=0;" edge="1" parent="1" source="AtMaZ5p30dFXvsd24rU8-84" target="AtMaZ5p30dFXvsd24rU8-99">
          <mxGeometry width="160" relative="1" as="geometry">
            <mxPoint x="3720" y="2212" as="sourcePoint" />
            <mxPoint x="3958" y="2020" as="targetPoint" />
          </mxGeometry>
        </mxCell>
        <mxCell id="AtMaZ5p30dFXvsd24rU8-111" value="" style="endArrow=open;endSize=12;dashed=1;html=1;rounded=0;exitX=1;exitY=0.5;exitDx=0;exitDy=0;entryX=0;entryY=0.5;entryDx=0;entryDy=0;" edge="1" parent="1" source="AtMaZ5p30dFXvsd24rU8-84" target="AtMaZ5p30dFXvsd24rU8-102">
          <mxGeometry width="160" relative="1" as="geometry">
            <mxPoint x="3960" y="2332" as="sourcePoint" />
            <mxPoint x="4198" y="2140" as="targetPoint" />
          </mxGeometry>
        </mxCell>
        <mxCell id="AtMaZ5p30dFXvsd24rU8-112" value="" style="endArrow=block;endSize=16;endFill=0;html=1;rounded=0;exitX=1;exitY=0.5;exitDx=0;exitDy=0;entryX=0;entryY=0.25;entryDx=0;entryDy=0;" edge="1" parent="1" source="AtMaZ5p30dFXvsd24rU8-87" target="AtMaZ5p30dFXvsd24rU8-103">
          <mxGeometry width="160" relative="1" as="geometry">
            <mxPoint x="3990" y="2020" as="sourcePoint" />
            <mxPoint x="4150" y="2020" as="targetPoint" />
          </mxGeometry>
        </mxCell>
        <mxCell id="AtMaZ5p30dFXvsd24rU8-113" value="" style="endArrow=block;endSize=16;endFill=0;html=1;rounded=0;exitX=1;exitY=0.5;exitDx=0;exitDy=0;entryX=0;entryY=0.25;entryDx=0;entryDy=0;" edge="1" parent="1" source="AtMaZ5p30dFXvsd24rU8-90" target="AtMaZ5p30dFXvsd24rU8-103">
          <mxGeometry width="160" relative="1" as="geometry">
            <mxPoint x="4180" y="1930" as="sourcePoint" />
            <mxPoint x="4200" y="1940" as="targetPoint" />
          </mxGeometry>
        </mxCell>
        <mxCell id="AtMaZ5p30dFXvsd24rU8-114" value="" style="endArrow=block;endSize=16;endFill=0;html=1;rounded=0;exitX=1;exitY=0.5;exitDx=0;exitDy=0;entryX=0;entryY=0.25;entryDx=0;entryDy=0;" edge="1" parent="1" source="AtMaZ5p30dFXvsd24rU8-93" target="AtMaZ5p30dFXvsd24rU8-103">
          <mxGeometry width="160" relative="1" as="geometry">
            <mxPoint x="4220" y="1970" as="sourcePoint" />
            <mxPoint x="4460" y="2138" as="targetPoint" />
          </mxGeometry>
        </mxCell>
        <mxCell id="AtMaZ5p30dFXvsd24rU8-115" value="" style="endArrow=block;endSize=16;endFill=0;html=1;rounded=0;exitX=1;exitY=0.5;exitDx=0;exitDy=0;entryX=0;entryY=0.25;entryDx=0;entryDy=0;" edge="1" parent="1" source="AtMaZ5p30dFXvsd24rU8-96" target="AtMaZ5p30dFXvsd24rU8-103">
          <mxGeometry width="160" relative="1" as="geometry">
            <mxPoint x="4270" y="2030" as="sourcePoint" />
            <mxPoint x="4510" y="2198" as="targetPoint" />
          </mxGeometry>
        </mxCell>
        <mxCell id="AtMaZ5p30dFXvsd24rU8-116" value="" style="endArrow=block;endSize=16;endFill=0;html=1;rounded=0;exitX=1;exitY=0.5;exitDx=0;exitDy=0;entryX=0;entryY=0.25;entryDx=0;entryDy=0;" edge="1" parent="1" source="AtMaZ5p30dFXvsd24rU8-99" target="AtMaZ5p30dFXvsd24rU8-103">
          <mxGeometry width="160" relative="1" as="geometry">
            <mxPoint x="4330" y="2040" as="sourcePoint" />
            <mxPoint x="4570" y="2208" as="targetPoint" />
          </mxGeometry>
        </mxCell>
        <mxCell id="AtMaZ5p30dFXvsd24rU8-117" value="" style="endArrow=block;endSize=16;endFill=0;html=1;rounded=0;exitX=1;exitY=0.5;exitDx=0;exitDy=0;entryX=0;entryY=0.25;entryDx=0;entryDy=0;" edge="1" parent="1" source="AtMaZ5p30dFXvsd24rU8-102" target="AtMaZ5p30dFXvsd24rU8-103">
          <mxGeometry width="160" relative="1" as="geometry">
            <mxPoint x="4210" y="2050" as="sourcePoint" />
            <mxPoint x="4450" y="2218" as="targetPoint" />
          </mxGeometry>
        </mxCell>
        <mxCell id="AtMaZ5p30dFXvsd24rU8-118" value="DoorController" style="swimlane;fontStyle=1;align=center;verticalAlign=top;childLayout=stackLayout;horizontal=1;startSize=26;horizontalStack=0;resizeParent=1;resizeParentMax=0;resizeLast=0;collapsible=1;marginBottom=0;whiteSpace=wrap;html=1;" vertex="1" parent="1">
          <mxGeometry x="1480" y="1330" width="160" height="120" as="geometry" />
        </mxCell>
        <mxCell id="AtMaZ5p30dFXvsd24rU8-119" value="&lt;div&gt;+ locked: bool&lt;/div&gt;" style="text;strokeColor=none;fillColor=none;align=left;verticalAlign=top;spacingLeft=4;spacingRight=4;overflow=hidden;rotatable=0;points=[[0,0.5],[1,0.5]];portConstraint=eastwest;whiteSpace=wrap;html=1;" vertex="1" parent="AtMaZ5p30dFXvsd24rU8-118">
          <mxGeometry y="26" width="160" height="24" as="geometry" />
        </mxCell>
        <mxCell id="AtMaZ5p30dFXvsd24rU8-120" value="" style="line;strokeWidth=1;fillColor=none;align=left;verticalAlign=middle;spacingTop=-1;spacingLeft=3;spacingRight=3;rotatable=0;labelPosition=right;points=[];portConstraint=eastwest;strokeColor=inherit;" vertex="1" parent="AtMaZ5p30dFXvsd24rU8-118">
          <mxGeometry y="50" width="160" height="12" as="geometry" />
        </mxCell>
        <mxCell id="AtMaZ5p30dFXvsd24rU8-121" value="&lt;div&gt;+ lock()&lt;/div&gt;&lt;div&gt;+ unlock()&lt;/div&gt;&lt;div&gt;+ check()&lt;/div&gt;" style="text;strokeColor=none;fillColor=none;align=left;verticalAlign=top;spacingLeft=4;spacingRight=4;overflow=hidden;rotatable=0;points=[[0,0.5],[1,0.5]];portConstraint=eastwest;whiteSpace=wrap;html=1;" vertex="1" parent="AtMaZ5p30dFXvsd24rU8-118">
          <mxGeometry y="62" width="160" height="58" as="geometry" />
        </mxCell>
        <mxCell id="AtMaZ5p30dFXvsd24rU8-122" value="Door" style="swimlane;fontStyle=1;align=center;verticalAlign=top;childLayout=stackLayout;horizontal=1;startSize=26;horizontalStack=0;resizeParent=1;resizeParentMax=0;resizeLast=0;collapsible=1;marginBottom=0;whiteSpace=wrap;html=1;" vertex="1" parent="1">
          <mxGeometry x="1760" y="1330" width="160" height="100" as="geometry" />
        </mxCell>
        <mxCell id="AtMaZ5p30dFXvsd24rU8-123" value="+ opened: bool" style="text;strokeColor=none;fillColor=none;align=left;verticalAlign=top;spacingLeft=4;spacingRight=4;overflow=hidden;rotatable=0;points=[[0,0.5],[1,0.5]];portConstraint=eastwest;whiteSpace=wrap;html=1;" vertex="1" parent="AtMaZ5p30dFXvsd24rU8-122">
          <mxGeometry y="26" width="160" height="26" as="geometry" />
        </mxCell>
        <mxCell id="AtMaZ5p30dFXvsd24rU8-124" value="" style="line;strokeWidth=1;fillColor=none;align=left;verticalAlign=middle;spacingTop=-1;spacingLeft=3;spacingRight=3;rotatable=0;labelPosition=right;points=[];portConstraint=eastwest;strokeColor=inherit;" vertex="1" parent="AtMaZ5p30dFXvsd24rU8-122">
          <mxGeometry y="52" width="160" height="8" as="geometry" />
        </mxCell>
        <mxCell id="AtMaZ5p30dFXvsd24rU8-125" value="&lt;div&gt;+ open()&lt;/div&gt;&lt;div&gt;+ close()&lt;/div&gt;" style="text;strokeColor=none;fillColor=none;align=left;verticalAlign=top;spacingLeft=4;spacingRight=4;overflow=hidden;rotatable=0;points=[[0,0.5],[1,0.5]];portConstraint=eastwest;whiteSpace=wrap;html=1;" vertex="1" parent="AtMaZ5p30dFXvsd24rU8-122">
          <mxGeometry y="60" width="160" height="40" as="geometry" />
        </mxCell>
        <mxCell id="AtMaZ5p30dFXvsd24rU8-126" value="" style="endArrow=open;endSize=12;dashed=1;html=1;rounded=0;exitX=1.002;exitY=0.131;exitDx=0;exitDy=0;exitPerimeter=0;" edge="1" parent="1" source="AtMaZ5p30dFXvsd24rU8-118">
          <mxGeometry width="160" relative="1" as="geometry">
            <mxPoint x="1810" y="1690" as="sourcePoint" />
            <mxPoint x="1760" y="1345" as="targetPoint" />
          </mxGeometry>
        </mxCell>
        <mxCell id="AtMaZ5p30dFXvsd24rU8-127" value="Alarm" style="swimlane;fontStyle=1;align=center;verticalAlign=top;childLayout=stackLayout;horizontal=1;startSize=26;horizontalStack=0;resizeParent=1;resizeParentMax=0;resizeLast=0;collapsible=1;marginBottom=0;whiteSpace=wrap;html=1;" vertex="1" parent="1">
          <mxGeometry x="2760" y="2370" width="160" height="60" as="geometry" />
        </mxCell>
        <mxCell id="AtMaZ5p30dFXvsd24rU8-128" value="+ active: bool" style="text;strokeColor=none;fillColor=none;align=left;verticalAlign=top;spacingLeft=4;spacingRight=4;overflow=hidden;rotatable=0;points=[[0,0.5],[1,0.5]];portConstraint=eastwest;whiteSpace=wrap;html=1;" vertex="1" parent="AtMaZ5p30dFXvsd24rU8-127">
          <mxGeometry y="26" width="160" height="26" as="geometry" />
        </mxCell>
        <mxCell id="AtMaZ5p30dFXvsd24rU8-129" value="" style="line;strokeWidth=1;fillColor=none;align=left;verticalAlign=middle;spacingTop=-1;spacingLeft=3;spacingRight=3;rotatable=0;labelPosition=right;points=[];portConstraint=eastwest;strokeColor=inherit;" vertex="1" parent="AtMaZ5p30dFXvsd24rU8-127">
          <mxGeometry y="52" width="160" height="8" as="geometry" />
        </mxCell>
        <mxCell id="AtMaZ5p30dFXvsd24rU8-130" value="" style="endArrow=open;endSize=12;dashed=1;html=1;rounded=0;exitX=0.995;exitY=0.141;exitDx=0;exitDy=0;entryX=0;entryY=0.25;entryDx=0;entryDy=0;exitPerimeter=0;" edge="1" parent="1" source="AtMaZ5p30dFXvsd24rU8-131" target="AtMaZ5p30dFXvsd24rU8-127">
          <mxGeometry width="160" relative="1" as="geometry">
            <mxPoint x="2770" y="2730" as="sourcePoint" />
            <mxPoint x="2930" y="2730" as="targetPoint" />
          </mxGeometry>
        </mxCell>
        <mxCell id="AtMaZ5p30dFXvsd24rU8-131" value="AlarmController" style="swimlane;fontStyle=1;align=center;verticalAlign=top;childLayout=stackLayout;horizontal=1;startSize=26;horizontalStack=0;resizeParent=1;resizeParentMax=0;resizeLast=0;collapsible=1;marginBottom=0;whiteSpace=wrap;html=1;" vertex="1" parent="1">
          <mxGeometry x="2480" y="2370" width="160" height="110" as="geometry" />
        </mxCell>
        <mxCell id="AtMaZ5p30dFXvsd24rU8-132" value="+ alarm: Alarm" style="text;strokeColor=none;fillColor=none;align=left;verticalAlign=top;spacingLeft=4;spacingRight=4;overflow=hidden;rotatable=0;points=[[0,0.5],[1,0.5]];portConstraint=eastwest;whiteSpace=wrap;html=1;" vertex="1" parent="AtMaZ5p30dFXvsd24rU8-131">
          <mxGeometry y="26" width="160" height="26" as="geometry" />
        </mxCell>
        <mxCell id="AtMaZ5p30dFXvsd24rU8-133" value="" style="line;strokeWidth=1;fillColor=none;align=left;verticalAlign=middle;spacingTop=-1;spacingLeft=3;spacingRight=3;rotatable=0;labelPosition=right;points=[];portConstraint=eastwest;strokeColor=inherit;" vertex="1" parent="AtMaZ5p30dFXvsd24rU8-131">
          <mxGeometry y="52" width="160" height="8" as="geometry" />
        </mxCell>
        <mxCell id="AtMaZ5p30dFXvsd24rU8-134" value="&lt;div&gt;+ activate_alarm()&lt;/div&gt;&lt;div&gt;+ deactivate_alarm()&lt;/div&gt;&lt;div&gt;+ is_alarming()&lt;/div&gt;" style="text;strokeColor=none;fillColor=none;align=left;verticalAlign=top;spacingLeft=4;spacingRight=4;overflow=hidden;rotatable=0;points=[[0,0.5],[1,0.5]];portConstraint=eastwest;whiteSpace=wrap;html=1;" vertex="1" parent="AtMaZ5p30dFXvsd24rU8-131">
          <mxGeometry y="60" width="160" height="50" as="geometry" />
        </mxCell>
        <mxCell id="AtMaZ5p30dFXvsd24rU8-135" value="CoolingFanController" style="swimlane;fontStyle=1;align=center;verticalAlign=top;childLayout=stackLayout;horizontal=1;startSize=26;horizontalStack=0;resizeParent=1;resizeParentMax=0;resizeLast=0;collapsible=1;marginBottom=0;whiteSpace=wrap;html=1;" vertex="1" parent="1">
          <mxGeometry x="2370" y="1560" width="160" height="150" as="geometry" />
        </mxCell>
        <mxCell id="AtMaZ5p30dFXvsd24rU8-136" value="&lt;div&gt;+ targetPowerlevel: float&lt;/div&gt;&lt;div&gt;+ cooldown: bool&lt;/div&gt;&lt;div&gt;+ emergency: bool&lt;/div&gt;&lt;div&gt;+ running: bool&lt;/div&gt;" style="text;strokeColor=none;fillColor=none;align=left;verticalAlign=top;spacingLeft=4;spacingRight=4;overflow=hidden;rotatable=0;points=[[0,0.5],[1,0.5]];portConstraint=eastwest;whiteSpace=wrap;html=1;" vertex="1" parent="AtMaZ5p30dFXvsd24rU8-135">
          <mxGeometry y="26" width="160" height="64" as="geometry" />
        </mxCell>
        <mxCell id="AtMaZ5p30dFXvsd24rU8-137" value="" style="line;strokeWidth=1;fillColor=none;align=left;verticalAlign=middle;spacingTop=-1;spacingLeft=3;spacingRight=3;rotatable=0;labelPosition=right;points=[];portConstraint=eastwest;strokeColor=inherit;" vertex="1" parent="AtMaZ5p30dFXvsd24rU8-135">
          <mxGeometry y="90" width="160" height="8" as="geometry" />
        </mxCell>
        <mxCell id="AtMaZ5p30dFXvsd24rU8-138" value="&lt;div&gt;+ start()&lt;/div&gt;&lt;div&gt;+ stop()&lt;/div&gt;&lt;div&gt;+ emergency_stop()&lt;/div&gt;" style="text;strokeColor=none;fillColor=none;align=left;verticalAlign=top;spacingLeft=4;spacingRight=4;overflow=hidden;rotatable=0;points=[[0,0.5],[1,0.5]];portConstraint=eastwest;whiteSpace=wrap;html=1;" vertex="1" parent="AtMaZ5p30dFXvsd24rU8-135">
          <mxGeometry y="98" width="160" height="52" as="geometry" />
        </mxCell>
        <mxCell id="AtMaZ5p30dFXvsd24rU8-140" value="CoolingFan" style="swimlane;fontStyle=1;align=center;verticalAlign=top;childLayout=stackLayout;horizontal=1;startSize=26;horizontalStack=0;resizeParent=1;resizeParentMax=0;resizeLast=0;collapsible=1;marginBottom=0;whiteSpace=wrap;html=1;" vertex="1" parent="1">
          <mxGeometry x="2650" y="1560" width="160" height="60" as="geometry" />
        </mxCell>
        <mxCell id="AtMaZ5p30dFXvsd24rU8-141" value="+ power_share: float" style="text;strokeColor=none;fillColor=none;align=left;verticalAlign=top;spacingLeft=4;spacingRight=4;overflow=hidden;rotatable=0;points=[[0,0.5],[1,0.5]];portConstraint=eastwest;whiteSpace=wrap;html=1;" vertex="1" parent="AtMaZ5p30dFXvsd24rU8-140">
          <mxGeometry y="26" width="160" height="26" as="geometry" />
        </mxCell>
        <mxCell id="AtMaZ5p30dFXvsd24rU8-142" value="" style="line;strokeWidth=1;fillColor=none;align=left;verticalAlign=middle;spacingTop=-1;spacingLeft=3;spacingRight=3;rotatable=0;labelPosition=right;points=[];portConstraint=eastwest;strokeColor=inherit;" vertex="1" parent="AtMaZ5p30dFXvsd24rU8-140">
          <mxGeometry y="52" width="160" height="8" as="geometry" />
        </mxCell>
        <mxCell id="AtMaZ5p30dFXvsd24rU8-143" value="" style="endArrow=open;endSize=12;dashed=1;html=1;rounded=0;exitX=1;exitY=0.5;exitDx=0;exitDy=0;entryX=0;entryY=0.5;entryDx=0;entryDy=0;" edge="1" parent="1" source="AtMaZ5p30dFXvsd24rU8-136" target="AtMaZ5p30dFXvsd24rU8-141">
          <mxGeometry width="160" relative="1" as="geometry">
            <mxPoint x="2650" y="1800" as="sourcePoint" />
            <mxPoint x="2810" y="1800" as="targetPoint" />
          </mxGeometry>
        </mxCell>
        <mxCell id="AtMaZ5p30dFXvsd24rU8-144" value="TurntableControl" style="swimlane;fontStyle=1;align=center;verticalAlign=top;childLayout=stackLayout;horizontal=1;startSize=26;horizontalStack=0;resizeParent=1;resizeParentMax=0;resizeLast=0;collapsible=1;marginBottom=0;whiteSpace=wrap;html=1;" vertex="1" parent="1">
          <mxGeometry x="1450" y="1570" width="210" height="130" as="geometry" />
        </mxCell>
        <mxCell id="AtMaZ5p30dFXvsd24rU8-145" value="+ target_rotations_per_minute:&amp;nbsp; float" style="text;strokeColor=none;fillColor=none;align=left;verticalAlign=top;spacingLeft=4;spacingRight=4;overflow=hidden;rotatable=0;points=[[0,0.5],[1,0.5]];portConstraint=eastwest;whiteSpace=wrap;html=1;" vertex="1" parent="AtMaZ5p30dFXvsd24rU8-144">
          <mxGeometry y="26" width="210" height="26" as="geometry" />
        </mxCell>
        <mxCell id="AtMaZ5p30dFXvsd24rU8-146" value="" style="line;strokeWidth=1;fillColor=none;align=left;verticalAlign=middle;spacingTop=-1;spacingLeft=3;spacingRight=3;rotatable=0;labelPosition=right;points=[];portConstraint=eastwest;strokeColor=inherit;" vertex="1" parent="AtMaZ5p30dFXvsd24rU8-144">
          <mxGeometry y="52" width="210" height="8" as="geometry" />
        </mxCell>
        <mxCell id="AtMaZ5p30dFXvsd24rU8-147" value="&lt;div&gt;+ set_speed(float)&lt;/div&gt;+ update()&lt;div&gt;+ stop()&lt;/div&gt;&lt;div&gt;+ emergency_stop()&lt;/div&gt;" style="text;strokeColor=none;fillColor=none;align=left;verticalAlign=top;spacingLeft=4;spacingRight=4;overflow=hidden;rotatable=0;points=[[0,0.5],[1,0.5]];portConstraint=eastwest;whiteSpace=wrap;html=1;" vertex="1" parent="AtMaZ5p30dFXvsd24rU8-144">
          <mxGeometry y="60" width="210" height="70" as="geometry" />
        </mxCell>
        <mxCell id="AtMaZ5p30dFXvsd24rU8-148" value="Turntable" style="swimlane;fontStyle=1;align=center;verticalAlign=top;childLayout=stackLayout;horizontal=1;startSize=26;horizontalStack=0;resizeParent=1;resizeParentMax=0;resizeLast=0;collapsible=1;marginBottom=0;whiteSpace=wrap;html=1;" vertex="1" parent="1">
          <mxGeometry x="1730" y="1570" width="190" height="60" as="geometry" />
        </mxCell>
        <mxCell id="AtMaZ5p30dFXvsd24rU8-149" value="+ rotations_per_minute: float" style="text;strokeColor=none;fillColor=none;align=left;verticalAlign=top;spacingLeft=4;spacingRight=4;overflow=hidden;rotatable=0;points=[[0,0.5],[1,0.5]];portConstraint=eastwest;whiteSpace=wrap;html=1;" vertex="1" parent="AtMaZ5p30dFXvsd24rU8-148">
          <mxGeometry y="26" width="190" height="26" as="geometry" />
        </mxCell>
        <mxCell id="AtMaZ5p30dFXvsd24rU8-150" value="" style="line;strokeWidth=1;fillColor=none;align=left;verticalAlign=middle;spacingTop=-1;spacingLeft=3;spacingRight=3;rotatable=0;labelPosition=right;points=[];portConstraint=eastwest;strokeColor=inherit;" vertex="1" parent="AtMaZ5p30dFXvsd24rU8-148">
          <mxGeometry y="52" width="190" height="8" as="geometry" />
        </mxCell>
        <mxCell id="AtMaZ5p30dFXvsd24rU8-151" value="" style="endArrow=open;endSize=12;dashed=1;html=1;rounded=0;exitX=1;exitY=0.5;exitDx=0;exitDy=0;entryX=0;entryY=0.5;entryDx=0;entryDy=0;" edge="1" parent="1" source="AtMaZ5p30dFXvsd24rU8-145" target="AtMaZ5p30dFXvsd24rU8-149">
          <mxGeometry width="160" relative="1" as="geometry">
            <mxPoint x="1570" y="1770" as="sourcePoint" />
            <mxPoint x="1700" y="1650" as="targetPoint" />
          </mxGeometry>
        </mxCell>
        <mxCell id="AtMaZ5p30dFXvsd24rU8-152" value="ProgramHandler" style="swimlane;fontStyle=1;align=center;verticalAlign=top;childLayout=stackLayout;horizontal=1;startSize=26;horizontalStack=0;resizeParent=1;resizeParentMax=0;resizeLast=0;collapsible=1;marginBottom=0;whiteSpace=wrap;html=1;" vertex="1" parent="1">
          <mxGeometry x="1445" y="1950" width="200" height="230" as="geometry" />
        </mxCell>
        <mxCell id="AtMaZ5p30dFXvsd24rU8-153" value="+ program: Program" style="text;strokeColor=none;fillColor=none;align=left;verticalAlign=top;spacingLeft=4;spacingRight=4;overflow=hidden;rotatable=0;points=[[0,0.5],[1,0.5]];portConstraint=eastwest;whiteSpace=wrap;html=1;" vertex="1" parent="AtMaZ5p30dFXvsd24rU8-152">
          <mxGeometry y="26" width="200" height="26" as="geometry" />
        </mxCell>
        <mxCell id="AtMaZ5p30dFXvsd24rU8-154" value="" style="line;strokeWidth=1;fillColor=none;align=left;verticalAlign=middle;spacingTop=-1;spacingLeft=3;spacingRight=3;rotatable=0;labelPosition=right;points=[];portConstraint=eastwest;strokeColor=inherit;" vertex="1" parent="AtMaZ5p30dFXvsd24rU8-152">
          <mxGeometry y="52" width="200" height="8" as="geometry" />
        </mxCell>
        <mxCell id="AtMaZ5p30dFXvsd24rU8-155" value="&lt;div&gt;+ start(Program)&lt;/div&gt;&lt;div&gt;+ pause()&lt;/div&gt;&lt;div&gt;+ resume()&lt;/div&gt;&lt;div&gt;+ stop()&lt;/div&gt;&lt;div&gt;+ emergency_stop()&lt;/div&gt;&lt;div&gt;&lt;br&gt;&lt;/div&gt;&lt;div&gt;+ is_running(): bool&lt;/div&gt;&lt;div&gt;+ is_paused(): bool&lt;/div&gt;&lt;div&gt;+ is_finished(): bool&lt;/div&gt;&lt;div&gt;+ get_running_program(): bool&lt;/div&gt;&lt;div&gt;+ get_state_tuple(): tuple&lt;/div&gt;" style="text;strokeColor=none;fillColor=none;align=left;verticalAlign=top;spacingLeft=4;spacingRight=4;overflow=hidden;rotatable=0;points=[[0,0.5],[1,0.5]];portConstraint=eastwest;whiteSpace=wrap;html=1;" vertex="1" parent="AtMaZ5p30dFXvsd24rU8-152">
          <mxGeometry y="60" width="200" height="170" as="geometry" />
        </mxCell>
        <mxCell id="AtMaZ5p30dFXvsd24rU8-156" value="Program" style="swimlane;fontStyle=1;align=center;verticalAlign=top;childLayout=stackLayout;horizontal=1;startSize=26;horizontalStack=0;resizeParent=1;resizeParentMax=0;resizeLast=0;collapsible=1;marginBottom=0;whiteSpace=wrap;html=1;" vertex="1" parent="1">
          <mxGeometry x="1765" y="1950" width="160" height="200" as="geometry" />
        </mxCell>
        <mxCell id="AtMaZ5p30dFXvsd24rU8-157" value="&lt;div&gt;+ name: str&lt;/div&gt;&lt;div&gt;+ paused: bool&lt;/div&gt;&lt;div&gt;+ running: bool&lt;/div&gt;&lt;div&gt;+ finished: bool&lt;/div&gt;" style="text;strokeColor=none;fillColor=none;align=left;verticalAlign=top;spacingLeft=4;spacingRight=4;overflow=hidden;rotatable=0;points=[[0,0.5],[1,0.5]];portConstraint=eastwest;whiteSpace=wrap;html=1;" vertex="1" parent="AtMaZ5p30dFXvsd24rU8-156">
          <mxGeometry y="26" width="160" height="64" as="geometry" />
        </mxCell>
        <mxCell id="AtMaZ5p30dFXvsd24rU8-158" value="" style="line;strokeWidth=1;fillColor=none;align=left;verticalAlign=middle;spacingTop=-1;spacingLeft=3;spacingRight=3;rotatable=0;labelPosition=right;points=[];portConstraint=eastwest;strokeColor=inherit;" vertex="1" parent="AtMaZ5p30dFXvsd24rU8-156">
          <mxGeometry y="90" width="160" height="8" as="geometry" />
        </mxCell>
        <mxCell id="AtMaZ5p30dFXvsd24rU8-159" value="&lt;div&gt;+ get_name(): str&lt;/div&gt;&lt;div&gt;+ start()&lt;/div&gt;&lt;div&gt;+ pause()&lt;/div&gt;&lt;div&gt;+ resume()&lt;/div&gt;&lt;div&gt;+ stop()&lt;/div&gt;&lt;div&gt;+ emergency_stop()&lt;/div&gt;" style="text;strokeColor=none;fillColor=none;align=left;verticalAlign=top;spacingLeft=4;spacingRight=4;overflow=hidden;rotatable=0;points=[[0,0.5],[1,0.5]];portConstraint=eastwest;whiteSpace=wrap;html=1;" vertex="1" parent="AtMaZ5p30dFXvsd24rU8-156">
          <mxGeometry y="98" width="160" height="102" as="geometry" />
        </mxCell>
        <mxCell id="AtMaZ5p30dFXvsd24rU8-160" value="DefrostingProgram" style="swimlane;fontStyle=1;align=center;verticalAlign=top;childLayout=stackLayout;horizontal=1;startSize=26;horizontalStack=0;resizeParent=1;resizeParentMax=0;resizeLast=0;collapsible=1;marginBottom=0;whiteSpace=wrap;html=1;" vertex="1" parent="1">
          <mxGeometry x="2045" y="2060" width="160" height="86" as="geometry" />
        </mxCell>
        <mxCell id="AtMaZ5p30dFXvsd24rU8-161" value="+ cycles: int" style="text;strokeColor=none;fillColor=none;align=left;verticalAlign=top;spacingLeft=4;spacingRight=4;overflow=hidden;rotatable=0;points=[[0,0.5],[1,0.5]];portConstraint=eastwest;whiteSpace=wrap;html=1;" vertex="1" parent="AtMaZ5p30dFXvsd24rU8-160">
          <mxGeometry y="26" width="160" height="26" as="geometry" />
        </mxCell>
        <mxCell id="AtMaZ5p30dFXvsd24rU8-162" value="" style="line;strokeWidth=1;fillColor=none;align=left;verticalAlign=middle;spacingTop=-1;spacingLeft=3;spacingRight=3;rotatable=0;labelPosition=right;points=[];portConstraint=eastwest;strokeColor=inherit;" vertex="1" parent="AtMaZ5p30dFXvsd24rU8-160">
          <mxGeometry y="52" width="160" height="8" as="geometry" />
        </mxCell>
        <mxCell id="AtMaZ5p30dFXvsd24rU8-163" value="- control_components()" style="text;strokeColor=none;fillColor=none;align=left;verticalAlign=top;spacingLeft=4;spacingRight=4;overflow=hidden;rotatable=0;points=[[0,0.5],[1,0.5]];portConstraint=eastwest;whiteSpace=wrap;html=1;" vertex="1" parent="AtMaZ5p30dFXvsd24rU8-160">
          <mxGeometry y="60" width="160" height="26" as="geometry" />
        </mxCell>
        <mxCell id="AtMaZ5p30dFXvsd24rU8-164" value="PrototypeProgram" style="swimlane;fontStyle=1;align=center;verticalAlign=top;childLayout=stackLayout;horizontal=1;startSize=26;horizontalStack=0;resizeParent=1;resizeParentMax=0;resizeLast=0;collapsible=1;marginBottom=0;whiteSpace=wrap;html=1;" vertex="1" parent="1">
          <mxGeometry x="2045" y="1950" width="160" height="60" as="geometry" />
        </mxCell>
        <mxCell id="AtMaZ5p30dFXvsd24rU8-165" value="" style="line;strokeWidth=1;fillColor=none;align=left;verticalAlign=middle;spacingTop=-1;spacingLeft=3;spacingRight=3;rotatable=0;labelPosition=right;points=[];portConstraint=eastwest;strokeColor=inherit;" vertex="1" parent="AtMaZ5p30dFXvsd24rU8-164">
          <mxGeometry y="26" width="160" height="8" as="geometry" />
        </mxCell>
        <mxCell id="AtMaZ5p30dFXvsd24rU8-166" value="- control_components()" style="text;strokeColor=none;fillColor=none;align=left;verticalAlign=top;spacingLeft=4;spacingRight=4;overflow=hidden;rotatable=0;points=[[0,0.5],[1,0.5]];portConstraint=eastwest;whiteSpace=wrap;html=1;" vertex="1" parent="AtMaZ5p30dFXvsd24rU8-164">
          <mxGeometry y="34" width="160" height="26" as="geometry" />
        </mxCell>
        <mxCell id="AtMaZ5p30dFXvsd24rU8-167" value="" style="endArrow=open;endSize=12;dashed=1;html=1;rounded=0;entryX=0;entryY=0;entryDx=0;entryDy=0;exitX=1;exitY=0;exitDx=0;exitDy=0;" edge="1" parent="1" source="AtMaZ5p30dFXvsd24rU8-152" target="AtMaZ5p30dFXvsd24rU8-156">
          <mxGeometry width="160" relative="1" as="geometry">
            <mxPoint x="1645" y="1938" as="sourcePoint" />
            <mxPoint x="1865" y="2060" as="targetPoint" />
          </mxGeometry>
        </mxCell>
        <mxCell id="AtMaZ5p30dFXvsd24rU8-168" value="" style="endArrow=block;dashed=1;endFill=0;endSize=12;html=1;rounded=0;entryX=1;entryY=0;entryDx=0;entryDy=0;exitX=0;exitY=0.25;exitDx=0;exitDy=0;" edge="1" parent="1" source="AtMaZ5p30dFXvsd24rU8-160" target="AtMaZ5p30dFXvsd24rU8-156">
          <mxGeometry width="160" relative="1" as="geometry">
            <mxPoint x="1815" y="2060" as="sourcePoint" />
            <mxPoint x="1975" y="2060" as="targetPoint" />
          </mxGeometry>
        </mxCell>
        <mxCell id="AtMaZ5p30dFXvsd24rU8-169" value="" style="endArrow=block;dashed=1;endFill=0;endSize=12;html=1;rounded=0;entryX=1;entryY=0;entryDx=0;entryDy=0;exitX=0;exitY=0.25;exitDx=0;exitDy=0;" edge="1" parent="1" source="AtMaZ5p30dFXvsd24rU8-164" target="AtMaZ5p30dFXvsd24rU8-156">
          <mxGeometry width="160" relative="1" as="geometry">
            <mxPoint x="2155" y="1950" as="sourcePoint" />
            <mxPoint x="2035" y="2070" as="targetPoint" />
          </mxGeometry>
        </mxCell>
        <mxCell id="AtMaZ5p30dFXvsd24rU8-172" value="TurntableControl" style="swimlane;fontStyle=1;align=center;verticalAlign=top;childLayout=stackLayout;horizontal=1;startSize=26;horizontalStack=0;resizeParent=1;resizeParentMax=0;resizeLast=0;collapsible=1;marginBottom=0;whiteSpace=wrap;html=1;" vertex="1" parent="1">
          <mxGeometry x="2360" y="1310" width="160" height="130" as="geometry" />
        </mxCell>
        <mxCell id="AtMaZ5p30dFXvsd24rU8-173" value="+ target angle: float" style="text;strokeColor=none;fillColor=none;align=left;verticalAlign=top;spacingLeft=4;spacingRight=4;overflow=hidden;rotatable=0;points=[[0,0.5],[1,0.5]];portConstraint=eastwest;whiteSpace=wrap;html=1;" vertex="1" parent="AtMaZ5p30dFXvsd24rU8-172">
          <mxGeometry y="26" width="160" height="26" as="geometry" />
        </mxCell>
        <mxCell id="AtMaZ5p30dFXvsd24rU8-174" value="" style="line;strokeWidth=1;fillColor=none;align=left;verticalAlign=middle;spacingTop=-1;spacingLeft=3;spacingRight=3;rotatable=0;labelPosition=right;points=[];portConstraint=eastwest;strokeColor=inherit;" vertex="1" parent="AtMaZ5p30dFXvsd24rU8-172">
          <mxGeometry y="52" width="160" height="8" as="geometry" />
        </mxCell>
        <mxCell id="AtMaZ5p30dFXvsd24rU8-175" value="&lt;div&gt;+ set_angle()&lt;/div&gt;&lt;div&gt;+ update()&lt;/div&gt;&lt;div&gt;+ stop()&lt;/div&gt;&lt;div&gt;+ emergency_stop()&lt;/div&gt;" style="text;strokeColor=none;fillColor=none;align=left;verticalAlign=top;spacingLeft=4;spacingRight=4;overflow=hidden;rotatable=0;points=[[0,0.5],[1,0.5]];portConstraint=eastwest;whiteSpace=wrap;html=1;" vertex="1" parent="AtMaZ5p30dFXvsd24rU8-172">
          <mxGeometry y="60" width="160" height="70" as="geometry" />
        </mxCell>
        <mxCell id="AtMaZ5p30dFXvsd24rU8-176" value="" style="endArrow=open;endSize=12;dashed=1;html=1;rounded=0;exitX=1;exitY=0.5;exitDx=0;exitDy=0;entryX=0;entryY=0.5;entryDx=0;entryDy=0;" edge="1" parent="1" source="AtMaZ5p30dFXvsd24rU8-173" target="AtMaZ5p30dFXvsd24rU8-178">
          <mxGeometry width="160" relative="1" as="geometry">
            <mxPoint x="2480" y="1510" as="sourcePoint" />
            <mxPoint x="2640" y="1349" as="targetPoint" />
          </mxGeometry>
        </mxCell>
        <mxCell id="AtMaZ5p30dFXvsd24rU8-177" value="Reflector" style="swimlane;fontStyle=1;align=center;verticalAlign=top;childLayout=stackLayout;horizontal=1;startSize=26;horizontalStack=0;resizeParent=1;resizeParentMax=0;resizeLast=0;collapsible=1;marginBottom=0;whiteSpace=wrap;html=1;" vertex="1" parent="1">
          <mxGeometry x="2640" y="1310" width="160" height="60" as="geometry" />
        </mxCell>
        <mxCell id="AtMaZ5p30dFXvsd24rU8-178" value="+ angle: float" style="text;strokeColor=none;fillColor=none;align=left;verticalAlign=top;spacingLeft=4;spacingRight=4;overflow=hidden;rotatable=0;points=[[0,0.5],[1,0.5]];portConstraint=eastwest;whiteSpace=wrap;html=1;" vertex="1" parent="AtMaZ5p30dFXvsd24rU8-177">
          <mxGeometry y="26" width="160" height="26" as="geometry" />
        </mxCell>
        <mxCell id="AtMaZ5p30dFXvsd24rU8-179" value="" style="line;strokeWidth=1;fillColor=none;align=left;verticalAlign=middle;spacingTop=-1;spacingLeft=3;spacingRight=3;rotatable=0;labelPosition=right;points=[];portConstraint=eastwest;strokeColor=inherit;" vertex="1" parent="AtMaZ5p30dFXvsd24rU8-177">
          <mxGeometry y="52" width="160" height="8" as="geometry" />
        </mxCell>
        <mxCell id="AtMaZ5p30dFXvsd24rU8-180" value="Emergency Handler" style="swimlane;fontStyle=1;align=center;verticalAlign=top;childLayout=stackLayout;horizontal=1;startSize=26;horizontalStack=0;resizeParent=1;resizeParentMax=0;resizeLast=0;collapsible=1;marginBottom=0;whiteSpace=wrap;html=1;" vertex="1" parent="1">
          <mxGeometry x="2445" y="2650" width="160" height="60" as="geometry" />
        </mxCell>
        <mxCell id="AtMaZ5p30dFXvsd24rU8-182" value="" style="line;strokeWidth=1;fillColor=none;align=left;verticalAlign=middle;spacingTop=-1;spacingLeft=3;spacingRight=3;rotatable=0;labelPosition=right;points=[];portConstraint=eastwest;strokeColor=inherit;" vertex="1" parent="AtMaZ5p30dFXvsd24rU8-180">
          <mxGeometry y="26" width="160" height="8" as="geometry" />
        </mxCell>
        <mxCell id="AtMaZ5p30dFXvsd24rU8-183" value="- control_components()" style="text;strokeColor=none;fillColor=none;align=left;verticalAlign=top;spacingLeft=4;spacingRight=4;overflow=hidden;rotatable=0;points=[[0,0.5],[1,0.5]];portConstraint=eastwest;whiteSpace=wrap;html=1;" vertex="1" parent="AtMaZ5p30dFXvsd24rU8-180">
          <mxGeometry y="34" width="160" height="26" as="geometry" />
        </mxCell>
        <mxCell id="AtMaZ5p30dFXvsd24rU8-184" value="CustomException" style="swimlane;fontStyle=1;align=center;verticalAlign=top;childLayout=stackLayout;horizontal=1;startSize=26;horizontalStack=0;resizeParent=1;resizeParentMax=0;resizeLast=0;collapsible=1;marginBottom=0;whiteSpace=wrap;html=1;" vertex="1" parent="1">
          <mxGeometry x="2695" y="2650" width="160" height="34" as="geometry" />
        </mxCell>
        <mxCell id="AtMaZ5p30dFXvsd24rU8-186" value="" style="line;strokeWidth=1;fillColor=none;align=left;verticalAlign=middle;spacingTop=-1;spacingLeft=3;spacingRight=3;rotatable=0;labelPosition=right;points=[];portConstraint=eastwest;strokeColor=inherit;" vertex="1" parent="AtMaZ5p30dFXvsd24rU8-184">
          <mxGeometry y="26" width="160" height="8" as="geometry" />
        </mxCell>
        <mxCell id="AtMaZ5p30dFXvsd24rU8-188" value="Exception" style="swimlane;fontStyle=1;align=center;verticalAlign=top;childLayout=stackLayout;horizontal=1;startSize=26;horizontalStack=0;resizeParent=1;resizeParentMax=0;resizeLast=0;collapsible=1;marginBottom=0;whiteSpace=wrap;html=1;" vertex="1" parent="1">
          <mxGeometry x="2695" y="2770" width="160" height="34" as="geometry" />
        </mxCell>
        <mxCell id="AtMaZ5p30dFXvsd24rU8-189" value="" style="line;strokeWidth=1;fillColor=none;align=left;verticalAlign=middle;spacingTop=-1;spacingLeft=3;spacingRight=3;rotatable=0;labelPosition=right;points=[];portConstraint=eastwest;strokeColor=inherit;" vertex="1" parent="AtMaZ5p30dFXvsd24rU8-188">
          <mxGeometry y="26" width="160" height="8" as="geometry" />
        </mxCell>
        <mxCell id="AtMaZ5p30dFXvsd24rU8-190" value="" style="endArrow=block;endSize=16;endFill=0;html=1;rounded=0;entryX=0.5;entryY=0;entryDx=0;entryDy=0;exitX=0.5;exitY=1;exitDx=0;exitDy=0;" edge="1" parent="1" source="AtMaZ5p30dFXvsd24rU8-184" target="AtMaZ5p30dFXvsd24rU8-188">
          <mxGeometry width="160" relative="1" as="geometry">
            <mxPoint x="2655" y="2710" as="sourcePoint" />
            <mxPoint x="2815" y="2710" as="targetPoint" />
          </mxGeometry>
        </mxCell>
        <mxCell id="AtMaZ5p30dFXvsd24rU8-191" value="" style="endArrow=open;endSize=12;dashed=1;html=1;rounded=0;entryX=0;entryY=0.5;entryDx=0;entryDy=0;exitX=1;exitY=0.25;exitDx=0;exitDy=0;" edge="1" parent="1" source="AtMaZ5p30dFXvsd24rU8-180" target="AtMaZ5p30dFXvsd24rU8-184">
          <mxGeometry width="160" relative="1" as="geometry">
            <mxPoint x="2345" y="2715" as="sourcePoint" />
            <mxPoint x="2585" y="2760" as="targetPoint" />
          </mxGeometry>
        </mxCell>
        <mxCell id="AtMaZ5p30dFXvsd24rU8-192" value="MockException" style="swimlane;fontStyle=1;align=center;verticalAlign=top;childLayout=stackLayout;horizontal=1;startSize=26;horizontalStack=0;resizeParent=1;resizeParentMax=0;resizeLast=0;collapsible=1;marginBottom=0;whiteSpace=wrap;html=1;" vertex="1" parent="1">
          <mxGeometry x="2935" y="2650" width="160" height="34" as="geometry" />
        </mxCell>
        <mxCell id="AtMaZ5p30dFXvsd24rU8-193" value="" style="line;strokeWidth=1;fillColor=none;align=left;verticalAlign=middle;spacingTop=-1;spacingLeft=3;spacingRight=3;rotatable=0;labelPosition=right;points=[];portConstraint=eastwest;strokeColor=inherit;" vertex="1" parent="AtMaZ5p30dFXvsd24rU8-192">
          <mxGeometry y="26" width="160" height="8" as="geometry" />
        </mxCell>
        <mxCell id="AtMaZ5p30dFXvsd24rU8-194" value="DoorException" style="swimlane;fontStyle=1;align=center;verticalAlign=top;childLayout=stackLayout;horizontal=1;startSize=26;horizontalStack=0;resizeParent=1;resizeParentMax=0;resizeLast=0;collapsible=1;marginBottom=0;whiteSpace=wrap;html=1;" vertex="1" parent="1">
          <mxGeometry x="2935" y="2710" width="160" height="34" as="geometry" />
        </mxCell>
        <mxCell id="AtMaZ5p30dFXvsd24rU8-195" value="" style="line;strokeWidth=1;fillColor=none;align=left;verticalAlign=middle;spacingTop=-1;spacingLeft=3;spacingRight=3;rotatable=0;labelPosition=right;points=[];portConstraint=eastwest;strokeColor=inherit;" vertex="1" parent="AtMaZ5p30dFXvsd24rU8-194">
          <mxGeometry y="26" width="160" height="8" as="geometry" />
        </mxCell>
        <mxCell id="AtMaZ5p30dFXvsd24rU8-196" value="ProgramAlreadyRunningException" style="swimlane;fontStyle=1;align=center;verticalAlign=top;childLayout=stackLayout;horizontal=1;startSize=26;horizontalStack=0;resizeParent=1;resizeParentMax=0;resizeLast=0;collapsible=1;marginBottom=0;whiteSpace=wrap;html=1;" vertex="1" parent="1">
          <mxGeometry x="2935" y="2770" width="240" height="34" as="geometry" />
        </mxCell>
        <mxCell id="AtMaZ5p30dFXvsd24rU8-197" value="" style="line;strokeWidth=1;fillColor=none;align=left;verticalAlign=middle;spacingTop=-1;spacingLeft=3;spacingRight=3;rotatable=0;labelPosition=right;points=[];portConstraint=eastwest;strokeColor=inherit;" vertex="1" parent="AtMaZ5p30dFXvsd24rU8-196">
          <mxGeometry y="26" width="240" height="8" as="geometry" />
        </mxCell>
        <mxCell id="AtMaZ5p30dFXvsd24rU8-198" value="" style="endArrow=block;dashed=1;endFill=0;endSize=12;html=1;rounded=0;entryX=1;entryY=0.25;entryDx=0;entryDy=0;exitX=0;exitY=0.25;exitDx=0;exitDy=0;" edge="1" parent="1" source="AtMaZ5p30dFXvsd24rU8-192" target="AtMaZ5p30dFXvsd24rU8-184">
          <mxGeometry width="160" relative="1" as="geometry">
            <mxPoint x="2905" y="2730" as="sourcePoint" />
            <mxPoint x="3065" y="2730" as="targetPoint" />
          </mxGeometry>
        </mxCell>
        <mxCell id="AtMaZ5p30dFXvsd24rU8-199" value="" style="endArrow=block;dashed=1;endFill=0;endSize=12;html=1;rounded=0;entryX=1;entryY=0.25;entryDx=0;entryDy=0;exitX=0;exitY=0.25;exitDx=0;exitDy=0;" edge="1" parent="1" source="AtMaZ5p30dFXvsd24rU8-194" target="AtMaZ5p30dFXvsd24rU8-184">
          <mxGeometry width="160" relative="1" as="geometry">
            <mxPoint x="3025" y="2700" as="sourcePoint" />
            <mxPoint x="2945" y="2700" as="targetPoint" />
          </mxGeometry>
        </mxCell>
        <mxCell id="AtMaZ5p30dFXvsd24rU8-200" value="" style="endArrow=block;dashed=1;endFill=0;endSize=12;html=1;rounded=0;entryX=1;entryY=0.25;entryDx=0;entryDy=0;exitX=0;exitY=0.25;exitDx=0;exitDy=0;" edge="1" parent="1" source="AtMaZ5p30dFXvsd24rU8-196" target="AtMaZ5p30dFXvsd24rU8-184">
          <mxGeometry width="160" relative="1" as="geometry">
            <mxPoint x="3065" y="2810" as="sourcePoint" />
            <mxPoint x="2985" y="2750" as="targetPoint" />
          </mxGeometry>
        </mxCell>
        <mxCell id="AtMaZ5p30dFXvsd24rU8-201" value="MockUserInteractionHandler" style="swimlane;fontStyle=1;align=center;verticalAlign=top;childLayout=stackLayout;horizontal=1;startSize=26;horizontalStack=0;resizeParent=1;resizeParentMax=0;resizeLast=0;collapsible=1;marginBottom=0;whiteSpace=wrap;html=1;" vertex="1" parent="1">
          <mxGeometry x="1705" y="2910" width="240" height="100" as="geometry" />
        </mxCell>
        <mxCell id="AtMaZ5p30dFXvsd24rU8-202" value="+ run_once: bool" style="text;strokeColor=none;fillColor=none;align=left;verticalAlign=top;spacingLeft=4;spacingRight=4;overflow=hidden;rotatable=0;points=[[0,0.5],[1,0.5]];portConstraint=eastwest;whiteSpace=wrap;html=1;" vertex="1" parent="AtMaZ5p30dFXvsd24rU8-201">
          <mxGeometry y="26" width="240" height="26" as="geometry" />
        </mxCell>
        <mxCell id="AtMaZ5p30dFXvsd24rU8-203" value="" style="line;strokeWidth=1;fillColor=none;align=left;verticalAlign=middle;spacingTop=-1;spacingLeft=3;spacingRight=3;rotatable=0;labelPosition=right;points=[];portConstraint=eastwest;strokeColor=inherit;" vertex="1" parent="AtMaZ5p30dFXvsd24rU8-201">
          <mxGeometry y="52" width="240" height="8" as="geometry" />
        </mxCell>
        <mxCell id="AtMaZ5p30dFXvsd24rU8-204" value="&lt;div&gt;+ get_interactions(): tuple[Action, Program]&lt;/div&gt;&lt;div&gt;+ update_display(str, bool, bool, bool)&lt;/div&gt;" style="text;strokeColor=none;fillColor=none;align=left;verticalAlign=top;spacingLeft=4;spacingRight=4;overflow=hidden;rotatable=0;points=[[0,0.5],[1,0.5]];portConstraint=eastwest;whiteSpace=wrap;html=1;" vertex="1" parent="AtMaZ5p30dFXvsd24rU8-201">
          <mxGeometry y="60" width="240" height="40" as="geometry" />
        </mxCell>
        <mxCell id="AtMaZ5p30dFXvsd24rU8-205" value="SystemControl" style="swimlane;fontStyle=1;align=center;verticalAlign=top;childLayout=stackLayout;horizontal=1;startSize=26;horizontalStack=0;resizeParent=1;resizeParentMax=0;resizeLast=0;collapsible=1;marginBottom=0;whiteSpace=wrap;html=1;" vertex="1" parent="1">
          <mxGeometry x="1720" y="2637" width="240" height="110" as="geometry" />
        </mxCell>
        <mxCell id="AtMaZ5p30dFXvsd24rU8-206" value="+ state: State" style="text;strokeColor=none;fillColor=none;align=left;verticalAlign=top;spacingLeft=4;spacingRight=4;overflow=hidden;rotatable=0;points=[[0,0.5],[1,0.5]];portConstraint=eastwest;whiteSpace=wrap;html=1;" vertex="1" parent="AtMaZ5p30dFXvsd24rU8-205">
          <mxGeometry y="26" width="240" height="26" as="geometry" />
        </mxCell>
        <mxCell id="AtMaZ5p30dFXvsd24rU8-207" value="" style="line;strokeWidth=1;fillColor=none;align=left;verticalAlign=middle;spacingTop=-1;spacingLeft=3;spacingRight=3;rotatable=0;labelPosition=right;points=[];portConstraint=eastwest;strokeColor=inherit;" vertex="1" parent="AtMaZ5p30dFXvsd24rU8-205">
          <mxGeometry y="52" width="240" height="8" as="geometry" />
        </mxCell>
        <mxCell id="AtMaZ5p30dFXvsd24rU8-208" value="&lt;div&gt;+ factory_reset()&lt;/div&gt;&lt;div&gt;+ stop()&lt;/div&gt;&lt;div&gt;+ start()&lt;/div&gt;&lt;div&gt;&lt;br&gt;&lt;/div&gt;" style="text;strokeColor=none;fillColor=none;align=left;verticalAlign=top;spacingLeft=4;spacingRight=4;overflow=hidden;rotatable=0;points=[[0,0.5],[1,0.5]];portConstraint=eastwest;whiteSpace=wrap;html=1;" vertex="1" parent="AtMaZ5p30dFXvsd24rU8-205">
          <mxGeometry y="60" width="240" height="50" as="geometry" />
        </mxCell>
        <mxCell id="AtMaZ5p30dFXvsd24rU8-210" value="send commands" style="edgeStyle=orthogonalEdgeStyle;rounded=0;orthogonalLoop=1;jettySize=auto;html=1;entryX=0.48;entryY=0.991;entryDx=0;entryDy=0;entryPerimeter=0;exitX=0.4;exitY=0.009;exitDx=0;exitDy=0;exitPerimeter=0;" edge="1" parent="1" source="AtMaZ5p30dFXvsd24rU8-3" target="AtMaZ5p30dFXvsd24rU8-7">
          <mxGeometry x="0.0005" y="-6" relative="1" as="geometry">
            <mxPoint y="-1" as="offset" />
            <mxPoint x="1795" y="2580" as="sourcePoint" />
            <mxPoint x="1795" y="2460" as="targetPoint" />
          </mxGeometry>
        </mxCell>
        <mxCell id="AtMaZ5p30dFXvsd24rU8-211" value="send status" style="edgeStyle=orthogonalEdgeStyle;rounded=0;orthogonalLoop=1;jettySize=auto;html=1;exitX=0.608;exitY=0.998;exitDx=0;exitDy=0;entryX=0.709;entryY=0.004;entryDx=0;entryDy=0;exitPerimeter=0;entryPerimeter=0;" edge="1" parent="1" source="AtMaZ5p30dFXvsd24rU8-7" target="AtMaZ5p30dFXvsd24rU8-3">
          <mxGeometry relative="1" as="geometry">
            <mxPoint x="1895" y="2450" as="sourcePoint" />
            <mxPoint x="1895" y="2570" as="targetPoint" />
          </mxGeometry>
        </mxCell>
        <mxCell id="AtMaZ5p30dFXvsd24rU8-212" value="Not Implemented" style="swimlane;fontStyle=1;align=center;verticalAlign=top;childLayout=stackLayout;horizontal=1;startSize=26;horizontalStack=0;resizeParent=1;resizeParentMax=0;resizeLast=0;collapsible=1;marginBottom=0;whiteSpace=wrap;html=1;" vertex="1" parent="1">
          <mxGeometry x="1585" y="1803" width="190" height="34" as="geometry" />
        </mxCell>
        <mxCell id="AtMaZ5p30dFXvsd24rU8-214" value="" style="line;strokeWidth=1;fillColor=none;align=left;verticalAlign=middle;spacingTop=-1;spacingLeft=3;spacingRight=3;rotatable=0;labelPosition=right;points=[];portConstraint=eastwest;strokeColor=inherit;" vertex="1" parent="AtMaZ5p30dFXvsd24rU8-212">
          <mxGeometry y="26" width="190" height="8" as="geometry" />
        </mxCell>
        <mxCell id="AtMaZ5p30dFXvsd24rU8-215" value="send commands" style="edgeStyle=orthogonalEdgeStyle;rounded=0;orthogonalLoop=1;jettySize=auto;html=1;exitX=1;exitY=0.25;exitDx=0;exitDy=0;entryX=0;entryY=0.5;entryDx=10;entryDy=0;entryPerimeter=0;" edge="1" parent="1" source="AtMaZ5p30dFXvsd24rU8-3" target="AtMaZ5p30dFXvsd24rU8-32">
          <mxGeometry x="0.1215" y="-10" relative="1" as="geometry">
            <mxPoint as="offset" />
            <mxPoint x="2020" y="2457.22" as="sourcePoint" />
            <mxPoint x="2240" y="2372.22" as="targetPoint" />
            <Array as="points">
              <mxPoint x="2190" y="2648" />
              <mxPoint x="2190" y="2415" />
            </Array>
          </mxGeometry>
        </mxCell>
        <mxCell id="AtMaZ5p30dFXvsd24rU8-216" value="send commands" style="edgeStyle=orthogonalEdgeStyle;rounded=0;orthogonalLoop=1;jettySize=auto;html=1;entryX=1;entryY=0.5;entryDx=0;entryDy=0;exitX=0.75;exitY=0;exitDx=0;exitDy=0;" edge="1" parent="1" source="AtMaZ5p30dFXvsd24rU8-7" target="AtMaZ5p30dFXvsd24rU8-4">
          <mxGeometry x="0.1579" y="-51" relative="1" as="geometry">
            <mxPoint x="50" y="41" as="offset" />
            <mxPoint x="2045" y="1863.48" as="sourcePoint" />
            <mxPoint x="2045" y="1730" as="targetPoint" />
            <Array as="points">
              <mxPoint x="2080" y="1920" />
              <mxPoint x="2080" y="1820" />
            </Array>
          </mxGeometry>
        </mxCell>
        <mxCell id="AtMaZ5p30dFXvsd24rU8-217" value="" style="edgeStyle=orthogonalEdgeStyle;rounded=0;orthogonalLoop=1;jettySize=auto;html=1;entryX=1;entryY=0.5;entryDx=0;entryDy=0;exitX=0.829;exitY=0.008;exitDx=0;exitDy=0;exitPerimeter=0;" edge="1" parent="1" source="AtMaZ5p30dFXvsd24rU8-7" target="AtMaZ5p30dFXvsd24rU8-14">
          <mxGeometry x="0.0005" y="-6" relative="1" as="geometry">
            <mxPoint y="-1" as="offset" />
            <mxPoint x="2152.5" y="1869.74" as="sourcePoint" />
            <mxPoint x="2097.5" y="1769.74" as="targetPoint" />
          </mxGeometry>
        </mxCell>
        <mxCell id="AtMaZ5p30dFXvsd24rU8-218" value="" style="edgeStyle=orthogonalEdgeStyle;rounded=0;orthogonalLoop=1;jettySize=auto;html=1;entryX=1;entryY=0.5;entryDx=0;entryDy=0;exitX=0.877;exitY=-0.001;exitDx=0;exitDy=0;exitPerimeter=0;" edge="1" parent="1" source="AtMaZ5p30dFXvsd24rU8-7" target="AtMaZ5p30dFXvsd24rU8-10">
          <mxGeometry x="0.0005" y="-6" relative="1" as="geometry">
            <mxPoint y="-1" as="offset" />
            <mxPoint x="2240" y="1789.48" as="sourcePoint" />
            <mxPoint x="2120" y="1487.48" as="targetPoint" />
            <Array as="points">
              <mxPoint x="2080" y="1920" />
              <mxPoint x="2080" y="1380" />
            </Array>
          </mxGeometry>
        </mxCell>
        <mxCell id="AtMaZ5p30dFXvsd24rU8-219" value="" style="edgeStyle=orthogonalEdgeStyle;rounded=0;orthogonalLoop=1;jettySize=auto;html=1;entryX=0;entryY=0.5;entryDx=10;entryDy=0;exitX=0.926;exitY=-0.001;exitDx=0;exitDy=0;exitPerimeter=0;entryPerimeter=0;" edge="1" parent="1" source="AtMaZ5p30dFXvsd24rU8-7" target="AtMaZ5p30dFXvsd24rU8-15">
          <mxGeometry x="0.0005" y="-6" relative="1" as="geometry">
            <mxPoint y="-1" as="offset" />
            <mxPoint x="2329" y="2110" as="sourcePoint" />
            <mxPoint x="2170" y="1570" as="targetPoint" />
            <Array as="points">
              <mxPoint x="2190" y="1920" />
              <mxPoint x="2190" y="1380" />
            </Array>
          </mxGeometry>
        </mxCell>
        <mxCell id="AtMaZ5p30dFXvsd24rU8-220" value="" style="edgeStyle=orthogonalEdgeStyle;rounded=0;orthogonalLoop=1;jettySize=auto;html=1;entryX=0;entryY=0.5;entryDx=10;entryDy=0;entryPerimeter=0;exitX=0.981;exitY=0.005;exitDx=0;exitDy=0;exitPerimeter=0;" edge="1" parent="1" source="AtMaZ5p30dFXvsd24rU8-7" target="AtMaZ5p30dFXvsd24rU8-17">
          <mxGeometry x="0.0005" y="-6" relative="1" as="geometry">
            <mxPoint y="-1" as="offset" />
            <mxPoint x="2193" y="1720" as="sourcePoint" />
            <mxPoint x="2326.04" y="1606" as="targetPoint" />
            <Array as="points">
              <mxPoint x="2190" y="1921" />
              <mxPoint x="2190" y="1625" />
            </Array>
          </mxGeometry>
        </mxCell>
        <mxCell id="AtMaZ5p30dFXvsd24rU8-221" value="" style="edgeStyle=orthogonalEdgeStyle;rounded=0;orthogonalLoop=1;jettySize=auto;html=1;entryX=0;entryY=0.25;entryDx=10;entryDy=0;entryPerimeter=0;exitX=0.965;exitY=-0.001;exitDx=0;exitDy=0;exitPerimeter=0;" edge="1" parent="1" source="AtMaZ5p30dFXvsd24rU8-7" target="AtMaZ5p30dFXvsd24rU8-16">
          <mxGeometry x="0.0005" y="-6" relative="1" as="geometry">
            <mxPoint y="-1" as="offset" />
            <mxPoint x="2280" y="2196" as="sourcePoint" />
            <mxPoint x="2406" y="1900" as="targetPoint" />
            <Array as="points">
              <mxPoint x="2190" y="1920" />
              <mxPoint x="2190" y="1875" />
            </Array>
          </mxGeometry>
        </mxCell>
        <mxCell id="AtMaZ5p30dFXvsd24rU8-223" value="get data" style="edgeStyle=orthogonalEdgeStyle;rounded=0;orthogonalLoop=1;jettySize=auto;html=1;exitX=0.007;exitY=0.142;exitDx=0;exitDy=0;exitPerimeter=0;entryX=1;entryY=0.5;entryDx=0;entryDy=0;" edge="1" parent="1" source="AtMaZ5p30dFXvsd24rU8-13" target="AtMaZ5p30dFXvsd24rU8-17">
          <mxGeometry x="0.0005" y="-6" relative="1" as="geometry">
            <mxPoint y="-1" as="offset" />
            <mxPoint x="3060" y="2366" as="sourcePoint" />
            <mxPoint x="2990" y="1810" as="targetPoint" />
            <Array as="points">
              <mxPoint x="3060" y="1794" />
              <mxPoint x="3060" y="1625" />
            </Array>
          </mxGeometry>
        </mxCell>
        <mxCell id="AtMaZ5p30dFXvsd24rU8-224" value="get data" style="edgeStyle=orthogonalEdgeStyle;rounded=0;orthogonalLoop=1;jettySize=auto;html=1;exitX=0.01;exitY=0.7;exitDx=0;exitDy=0;exitPerimeter=0;entryX=0.75;entryY=1;entryDx=0;entryDy=0;" edge="1" parent="1" source="AtMaZ5p30dFXvsd24rU8-13" target="AtMaZ5p30dFXvsd24rU8-7">
          <mxGeometry x="-0.7994" y="10" relative="1" as="geometry">
            <mxPoint as="offset" />
            <mxPoint x="3578" y="2029" as="sourcePoint" />
            <mxPoint x="3170" y="1860" as="targetPoint" />
            <Array as="points">
              <mxPoint x="3120" y="2240" />
              <mxPoint x="3120" y="2280" />
              <mxPoint x="2015" y="2280" />
            </Array>
          </mxGeometry>
        </mxCell>
        <mxCell id="AtMaZ5p30dFXvsd24rU8-225" value="" style="edgeStyle=orthogonalEdgeStyle;rounded=0;orthogonalLoop=1;jettySize=auto;html=1;exitX=0.007;exitY=0.7;exitDx=0;exitDy=0;exitPerimeter=0;entryX=0.89;entryY=-0.002;entryDx=0;entryDy=0;entryPerimeter=0;" edge="1" parent="1" source="AtMaZ5p30dFXvsd24rU8-13" target="AtMaZ5p30dFXvsd24rU8-3">
          <mxGeometry x="-0.7568" relative="1" as="geometry">
            <mxPoint as="offset" />
            <mxPoint x="3256" y="2220" as="sourcePoint" />
            <mxPoint x="1980" y="2170" as="targetPoint" />
            <Array as="points">
              <mxPoint x="3120" y="2240" />
              <mxPoint x="3120" y="2280" />
              <mxPoint x="1958" y="2280" />
            </Array>
          </mxGeometry>
        </mxCell>
        <mxCell id="AtMaZ5p30dFXvsd24rU8-226" value="get data" style="edgeStyle=orthogonalEdgeStyle;rounded=0;orthogonalLoop=1;jettySize=auto;html=1;exitX=0;exitY=0.25;exitDx=10;exitDy=0;exitPerimeter=0;entryX=1;entryY=0.25;entryDx=0;entryDy=0;" edge="1" parent="1" source="AtMaZ5p30dFXvsd24rU8-13" target="AtMaZ5p30dFXvsd24rU8-16">
          <mxGeometry x="0.0361" relative="1" as="geometry">
            <mxPoint as="offset" />
            <mxPoint x="3308" y="2029" as="sourcePoint" />
            <mxPoint x="2900" y="1860" as="targetPoint" />
            <Array as="points">
              <mxPoint x="3080" y="1880" />
              <mxPoint x="3080" y="1875" />
            </Array>
          </mxGeometry>
        </mxCell>
        <mxCell id="AtMaZ5p30dFXvsd24rU8-227" value="delegate Errors" style="edgeStyle=orthogonalEdgeStyle;rounded=0;orthogonalLoop=1;jettySize=auto;html=1;exitX=1;exitY=0.5;exitDx=0;exitDy=0;entryX=0;entryY=0.25;entryDx=10;entryDy=0;entryPerimeter=0;" edge="1" parent="1" source="AtMaZ5p30dFXvsd24rU8-3" target="AtMaZ5p30dFXvsd24rU8-23">
          <mxGeometry x="0.288" y="5" relative="1" as="geometry">
            <mxPoint as="offset" />
            <mxPoint x="2070" y="2723" as="sourcePoint" />
            <mxPoint x="2485" y="2490" as="targetPoint" />
            <Array as="points">
              <mxPoint x="2265" y="2685" />
              <mxPoint x="2265" y="2658" />
              <mxPoint x="2410" y="2658" />
            </Array>
          </mxGeometry>
        </mxCell>
        <mxCell id="AtMaZ5p30dFXvsd24rU8-228" value="log events" style="edgeStyle=orthogonalEdgeStyle;rounded=0;orthogonalLoop=1;jettySize=auto;html=1;exitX=0.912;exitY=1.001;exitDx=0;exitDy=0;exitPerimeter=0;entryX=-0.013;entryY=0.199;entryDx=0;entryDy=0;entryPerimeter=0;" edge="1" parent="1" source="AtMaZ5p30dFXvsd24rU8-29" target="AtMaZ5p30dFXvsd24rU8-32">
          <mxGeometry x="-0.7317" y="45" relative="1" as="geometry">
            <mxPoint as="offset" />
            <mxPoint x="2270" y="2793" as="sourcePoint" />
            <mxPoint x="2310" y="2320" as="targetPoint" />
            <Array as="points">
              <mxPoint x="1201" y="2360" />
              <mxPoint x="2310" y="2360" />
              <mxPoint x="2310" y="2358" />
            </Array>
          </mxGeometry>
        </mxCell>
        <mxCell id="AtMaZ5p30dFXvsd24rU8-229" value="" style="edgeStyle=orthogonalEdgeStyle;rounded=0;orthogonalLoop=1;jettySize=auto;html=1;entryX=0;entryY=0;entryDx=0;entryDy=15;entryPerimeter=0;" edge="1" parent="1" target="AtMaZ5p30dFXvsd24rU8-23">
          <mxGeometry x="-0.7317" y="45" relative="1" as="geometry">
            <mxPoint as="offset" />
            <mxPoint x="2310" y="2360" as="sourcePoint" />
            <mxPoint x="2519" y="2425" as="targetPoint" />
            <Array as="points">
              <mxPoint x="2310" y="2615" />
            </Array>
          </mxGeometry>
        </mxCell>
        <mxCell id="AtMaZ5p30dFXvsd24rU8-230" value="log events" style="edgeStyle=orthogonalEdgeStyle;rounded=0;orthogonalLoop=1;jettySize=auto;html=1;exitX=0.951;exitY=-0.001;exitDx=0;exitDy=0;exitPerimeter=0;entryX=0;entryY=0;entryDx=0;entryDy=35;entryPerimeter=0;" edge="1" parent="1" source="AtMaZ5p30dFXvsd24rU8-29" target="AtMaZ5p30dFXvsd24rU8-13">
          <mxGeometry x="-0.9477" relative="1" as="geometry">
            <mxPoint as="offset" />
            <mxPoint x="1550" y="1050" as="sourcePoint" />
            <mxPoint x="3120" y="1420" as="targetPoint" />
            <Array as="points">
              <mxPoint x="1240" y="1200" />
              <mxPoint x="3180" y="1200" />
              <mxPoint x="3180" y="1715" />
            </Array>
          </mxGeometry>
        </mxCell>
        <mxCell id="AtMaZ5p30dFXvsd24rU8-231" value="" style="edgeStyle=orthogonalEdgeStyle;rounded=0;orthogonalLoop=1;jettySize=auto;html=1;entryX=0.432;entryY=0.001;entryDx=0;entryDy=0;entryPerimeter=0;" edge="1" parent="1" target="AtMaZ5p30dFXvsd24rU8-15">
          <mxGeometry x="-0.7317" y="45" relative="1" as="geometry">
            <mxPoint as="offset" />
            <mxPoint x="2560" y="1200" as="sourcePoint" />
            <mxPoint x="2650" y="1375" as="targetPoint" />
            <Array as="points">
              <mxPoint x="2560" y="1200" />
              <mxPoint x="2562" y="1200" />
            </Array>
          </mxGeometry>
        </mxCell>
        <mxCell id="AtMaZ5p30dFXvsd24rU8-232" value="" style="edgeStyle=orthogonalEdgeStyle;rounded=0;orthogonalLoop=1;jettySize=auto;html=1;entryX=0.432;entryY=0.001;entryDx=0;entryDy=0;entryPerimeter=0;" edge="1" parent="1">
          <mxGeometry x="-0.7317" y="45" relative="1" as="geometry">
            <mxPoint as="offset" />
            <mxPoint x="1720" y="1200" as="sourcePoint" />
            <mxPoint x="1722" y="1280" as="targetPoint" />
            <Array as="points">
              <mxPoint x="1720" y="1200" />
              <mxPoint x="1722" y="1200" />
            </Array>
          </mxGeometry>
        </mxCell>
        <mxCell id="AtMaZ5p30dFXvsd24rU8-233" value="" style="edgeStyle=orthogonalEdgeStyle;rounded=0;orthogonalLoop=1;jettySize=auto;html=1;entryX=0.02;entryY=0.607;entryDx=0;entryDy=0;entryPerimeter=0;" edge="1" parent="1" target="AtMaZ5p30dFXvsd24rU8-10">
          <mxGeometry x="-0.7317" y="45" relative="1" as="geometry">
            <mxPoint as="offset" />
            <mxPoint x="1240" y="1400" as="sourcePoint" />
            <mxPoint x="1352" y="1820" as="targetPoint" />
            <Array as="points">
              <mxPoint x="1352" y="1401" />
            </Array>
          </mxGeometry>
        </mxCell>
        <mxCell id="AtMaZ5p30dFXvsd24rU8-234" value="" style="edgeStyle=orthogonalEdgeStyle;rounded=0;orthogonalLoop=1;jettySize=auto;html=1;entryX=0.02;entryY=0.607;entryDx=0;entryDy=0;entryPerimeter=0;" edge="1" parent="1">
          <mxGeometry x="-0.7317" y="45" relative="1" as="geometry">
            <mxPoint as="offset" />
            <mxPoint x="1240" y="1640" as="sourcePoint" />
            <mxPoint x="1411" y="1641" as="targetPoint" />
            <Array as="points">
              <mxPoint x="1352" y="1641" />
            </Array>
          </mxGeometry>
        </mxCell>
        <mxCell id="AtMaZ5p30dFXvsd24rU8-235" value="" style="edgeStyle=orthogonalEdgeStyle;rounded=0;orthogonalLoop=1;jettySize=auto;html=1;entryX=0.02;entryY=0.607;entryDx=0;entryDy=0;entryPerimeter=0;" edge="1" parent="1">
          <mxGeometry x="-0.7317" y="45" relative="1" as="geometry">
            <mxPoint as="offset" />
            <mxPoint x="1240" y="1810" as="sourcePoint" />
            <mxPoint x="1411" y="1811" as="targetPoint" />
            <Array as="points">
              <mxPoint x="1352" y="1811" />
            </Array>
          </mxGeometry>
        </mxCell>
        <mxCell id="AtMaZ5p30dFXvsd24rU8-236" value="" style="edgeStyle=orthogonalEdgeStyle;rounded=0;orthogonalLoop=1;jettySize=auto;html=1;entryX=0.02;entryY=0.607;entryDx=0;entryDy=0;entryPerimeter=0;" edge="1" parent="1">
          <mxGeometry x="-0.7317" y="45" relative="1" as="geometry">
            <mxPoint as="offset" />
            <mxPoint x="1290" y="2015" as="sourcePoint" />
            <mxPoint x="1411" y="2015.48" as="targetPoint" />
            <Array as="points">
              <mxPoint x="1352" y="2015.48" />
            </Array>
          </mxGeometry>
        </mxCell>
        <mxCell id="AtMaZ5p30dFXvsd24rU8-237" value="" style="edgeStyle=orthogonalEdgeStyle;rounded=0;orthogonalLoop=1;jettySize=auto;html=1;entryX=1.004;entryY=0.394;entryDx=0;entryDy=0;entryPerimeter=0;" edge="1" parent="1" target="AtMaZ5p30dFXvsd24rU8-15">
          <mxGeometry x="-0.7317" y="45" relative="1" as="geometry">
            <mxPoint as="offset" />
            <mxPoint x="3180" y="1360" as="sourcePoint" />
            <mxPoint x="3171" y="1490.48" as="targetPoint" />
            <Array as="points">
              <mxPoint x="3180" y="1359" />
            </Array>
          </mxGeometry>
        </mxCell>
        <mxCell id="AtMaZ5p30dFXvsd24rU8-238" value="" style="edgeStyle=orthogonalEdgeStyle;rounded=0;orthogonalLoop=1;jettySize=auto;html=1;entryX=1.004;entryY=0.394;entryDx=0;entryDy=0;entryPerimeter=0;" edge="1" parent="1">
          <mxGeometry x="-0.7317" y="45" relative="1" as="geometry">
            <mxPoint as="offset" />
            <mxPoint x="3178" y="1571" as="sourcePoint" />
            <mxPoint x="2880" y="1570" as="targetPoint" />
            <Array as="points">
              <mxPoint x="3178" y="1570" />
            </Array>
          </mxGeometry>
        </mxCell>
        <mxCell id="AtMaZ5p30dFXvsd24rU8-239" value="" style="edgeStyle=orthogonalEdgeStyle;rounded=0;orthogonalLoop=1;jettySize=auto;html=1;entryX=1.004;entryY=0.394;entryDx=0;entryDy=0;entryPerimeter=0;" edge="1" parent="1">
          <mxGeometry x="-0.7317" y="45" relative="1" as="geometry">
            <mxPoint as="offset" />
            <mxPoint x="3180" y="1710" as="sourcePoint" />
            <mxPoint x="2880" y="1837" as="targetPoint" />
            <Array as="points">
              <mxPoint x="3180" y="1837" />
            </Array>
          </mxGeometry>
        </mxCell>
        <mxCell id="AtMaZ5p30dFXvsd24rU8-240" value="" style="edgeStyle=orthogonalEdgeStyle;rounded=0;orthogonalLoop=1;jettySize=auto;html=1;entryX=0.187;entryY=0.024;entryDx=0;entryDy=0;entryPerimeter=0;" edge="1" parent="1" target="AtMaZ5p30dFXvsd24rU8-3">
          <mxGeometry x="-0.7317" y="45" relative="1" as="geometry">
            <mxPoint as="offset" />
            <mxPoint x="1720" y="2360" as="sourcePoint" />
            <mxPoint x="1580" y="2420" as="targetPoint" />
            <Array as="points">
              <mxPoint x="1719" y="2360" />
            </Array>
          </mxGeometry>
        </mxCell>
      </root>
    </mxGraphModel>
  </diagram>
</mxfile>
